<?xml version="1.0" encoding="UTF-8"?>
<svg version="1.1" xmlns="http://www.w3.org/2000/svg" width="512" height="512">
<path d="M0 0 C4.61930892 2.1880937 6.71115132 4.50355977 9 9 C9.36076355 11.57539368 9.36076355 11.57539368 9.34057617 14.34106445 C9.34021362 15.39620239 9.33985107 16.45134033 9.33947754 17.53845215 C9.31645569 19.18424255 9.31645569 19.18424255 9.29296875 20.86328125 C9.28994751 21.88047241 9.28692627 22.89766357 9.28381348 23.94567871 C9.26815219 27.73472279 9.22626821 31.52362189 9.1875 35.3125 C9.125625 43.789375 9.06375 52.26625 9 61 C38.7 61 68.4 61 99 61 C98.84190436 44.15672358 98.84190436 44.15672358 98.63964844 27.31396484 C98.6279617 25.19629727 98.61776984 23.07862069 98.609375 20.9609375 C98.58891113 19.86885986 98.56844727 18.77678223 98.54736328 17.65161133 C98.54451812 11.44204458 98.78688326 7.69635895 103 3 C108.22259857 -1.05630398 113.65340142 -0.77397544 120 0 C124.61930892 2.1880937 126.71115132 4.50355977 129 9 C129.36076355 11.57539368 129.36076355 11.57539368 129.34057617 14.34106445 C129.34021362 15.39620239 129.33985107 16.45134033 129.33947754 17.53845215 C129.31645569 19.18424255 129.31645569 19.18424255 129.29296875 20.86328125 C129.28994751 21.88047241 129.28692627 22.89766357 129.28381348 23.94567871 C129.26815219 27.73472279 129.22626821 31.52362189 129.1875 35.3125 C129.125625 43.789375 129.06375 52.26625 129 61 C158.7 61 188.4 61 219 61 C218.84190436 44.15672358 218.84190436 44.15672358 218.63964844 27.31396484 C218.6279617 25.19629727 218.61776984 23.07862069 218.609375 20.9609375 C218.58891113 19.86885986 218.56844727 18.77678223 218.54736328 17.65161133 C218.54451812 11.44204458 218.78688326 7.69635895 223 3 C228.22259857 -1.05630398 233.65340142 -0.77397544 240 0 C244.61930892 2.1880937 246.71115132 4.50355977 249 9 C249.36076355 11.57539368 249.36076355 11.57539368 249.34057617 14.34106445 C249.34034958 15.3817659 249.34012299 16.42246735 249.33988953 17.4947052 C249.32440567 18.6063353 249.30892181 19.71796539 249.29296875 20.86328125 C249.28872391 22.01040085 249.28447906 23.15752045 249.28010559 24.33940125 C249.26333484 27.99734121 249.22568435 31.654727 249.1875 35.3125 C249.17245114 37.79491391 249.15876309 40.27733647 249.14648438 42.75976562 C249.11343649 48.84003231 249.0632524 54.91997656 249 61 C250.07707214 60.9837986 250.07707214 60.9837986 251.17590332 60.9672699 C254.46098031 60.92412968 257.74599745 60.89748086 261.03125 60.87109375 C262.72556152 60.84517151 262.72556152 60.84517151 264.45410156 60.81872559 C278.31940798 60.73523013 287.60484164 65.05598333 297.671875 74.58203125 C304.65552363 81.97965905 309.14944573 91.70863687 309.09765625 101.859375 C309.09443359 102.97441406 309.09121094 104.08945313 309.08789062 105.23828125 C309.07951172 106.39714844 309.07113281 107.55601563 309.0625 108.75 C309.05798828 109.92433594 309.05347656 111.09867187 309.04882812 112.30859375 C309.03705094 115.20578072 309.02060326 118.10286454 309 121 C309.63813629 120.99111755 310.27627258 120.98223511 310.93374634 120.9730835 C317.58480865 120.88448254 324.23570287 120.82421256 330.88720703 120.78027344 C333.36839611 120.76017759 335.84953795 120.73289616 338.33056641 120.69824219 C341.90018382 120.64963706 345.46917416 120.62701028 349.0390625 120.609375 C350.14553131 120.58872986 351.25200012 120.56808472 352.39199829 120.54681396 C358.58534375 120.54501586 362.31658193 120.79849256 367 125 C371.05630398 130.22259857 370.77397544 135.65340142 370 142 C367.8119063 146.61930892 365.49644023 148.71115132 361 151 C358.42460632 151.36076355 358.42460632 151.36076355 355.65893555 151.34057617 C354.60379761 151.34021362 353.54865967 151.33985107 352.46154785 151.33947754 C350.81575745 151.31645569 350.81575745 151.31645569 349.13671875 151.29296875 C348.11952759 151.28994751 347.10233643 151.28692627 346.05432129 151.28381348 C342.26527721 151.26815219 338.47637811 151.22626821 334.6875 151.1875 C326.210625 151.125625 317.73375 151.06375 309 151 C309 180.7 309 210.4 309 241 C325.84327642 240.84190436 325.84327642 240.84190436 342.68603516 240.63964844 C344.80370273 240.6279617 346.92137931 240.61776984 349.0390625 240.609375 C350.13114014 240.58891113 351.22321777 240.56844727 352.34838867 240.54736328 C358.55795542 240.54451812 362.30364105 240.78688326 367 245 C371.05630398 250.22259857 370.77397544 255.65340142 370 262 C367.8119063 266.61930892 365.49644023 268.71115132 361 271 C358.42460632 271.36076355 358.42460632 271.36076355 355.65893555 271.34057617 C354.60379761 271.34021362 353.54865967 271.33985107 352.46154785 271.33947754 C350.81575745 271.31645569 350.81575745 271.31645569 349.13671875 271.29296875 C348.11952759 271.28994751 347.10233643 271.28692627 346.05432129 271.28381348 C342.26527721 271.26815219 338.47637811 271.22626821 334.6875 271.1875 C326.210625 271.125625 317.73375 271.06375 309 271 C309 300.7 309 330.4 309 361 C325.84327642 360.84190436 325.84327642 360.84190436 342.68603516 360.63964844 C344.80370273 360.6279617 346.92137931 360.61776984 349.0390625 360.609375 C350.13114014 360.58891113 351.22321777 360.56844727 352.34838867 360.54736328 C358.55795542 360.54451812 362.30364105 360.78688326 367 365 C371.05630398 370.22259857 370.77397544 375.65340142 370 382 C367.8119063 386.61930892 365.49644023 388.71115132 361 391 C358.42460632 391.36076355 358.42460632 391.36076355 355.65893555 391.34057617 C354.09788338 391.34023628 354.09788338 391.34023628 352.5052948 391.33988953 C350.83784966 391.31666374 350.83784966 391.31666374 349.13671875 391.29296875 C347.98959915 391.28872391 346.84247955 391.28447906 345.66059875 391.28010559 C342.00265879 391.26333484 338.345273 391.22568435 334.6875 391.1875 C332.20508609 391.17245114 329.72266353 391.15876309 327.24023438 391.14648438 C321.15996769 391.11343649 315.08002344 391.0632524 309 391 C309.01080093 391.7180481 309.02160187 392.43609619 309.0327301 393.17590332 C309.07587032 396.46098031 309.10251914 399.74599745 309.12890625 403.03125 C309.14618774 404.16079102 309.16346924 405.29033203 309.18127441 406.45410156 C309.26476987 420.31940798 304.94401667 429.60484164 295.41796875 439.671875 C288.02034095 446.65552363 278.29136313 451.14944573 268.140625 451.09765625 C267.02558594 451.09443359 265.91054688 451.09121094 264.76171875 451.08789062 C263.60285156 451.07951172 262.44398438 451.07113281 261.25 451.0625 C259.48849609 451.05573242 259.48849609 451.05573242 257.69140625 451.04882812 C254.79421928 451.03705094 251.89713546 451.02060326 249 451 C249.00888245 451.63813629 249.01776489 452.27627258 249.0269165 452.93374634 C249.11551746 459.58480865 249.17578744 466.23570287 249.21972656 472.88720703 C249.23982241 475.36839611 249.26710384 477.84953795 249.30175781 480.33056641 C249.35036294 483.90018382 249.37298972 487.46917416 249.390625 491.0390625 C249.41127014 492.14553131 249.43191528 493.25200012 249.45318604 494.39199829 C249.45498414 500.58534375 249.20150744 504.31658193 245 509 C239.77740143 513.05630398 234.34659858 512.77397544 228 512 C223.38069108 509.8119063 221.28884868 507.49644023 219 503 C218.63923645 500.42460632 218.63923645 500.42460632 218.65942383 497.65893555 C218.65978638 496.60379761 218.66014893 495.54865967 218.66052246 494.46154785 C218.67587036 493.36435425 218.69121826 492.26716064 218.70703125 491.13671875 C218.71005249 490.11952759 218.71307373 489.10233643 218.71618652 488.05432129 C218.73184781 484.26527721 218.77373179 480.47637811 218.8125 476.6875 C218.874375 468.210625 218.93625 459.73375 219 451 C189.3 451 159.6 451 129 451 C129.15809564 467.84327642 129.15809564 467.84327642 129.36035156 484.68603516 C129.3720383 486.80370273 129.38223016 488.92137931 129.390625 491.0390625 C129.41108887 492.13114014 129.43155273 493.22321777 129.45263672 494.34838867 C129.45548188 500.55795542 129.21311674 504.30364105 125 509 C119.77740143 513.05630398 114.34659858 512.77397544 108 512 C103.38069108 509.8119063 101.28884868 507.49644023 99 503 C98.63923645 500.42460632 98.63923645 500.42460632 98.65942383 497.65893555 C98.65978638 496.60379761 98.66014893 495.54865967 98.66052246 494.46154785 C98.67587036 493.36435425 98.69121826 492.26716064 98.70703125 491.13671875 C98.71005249 490.11952759 98.71307373 489.10233643 98.71618652 488.05432129 C98.73184781 484.26527721 98.77373179 480.47637811 98.8125 476.6875 C98.874375 468.210625 98.93625 459.73375 99 451 C69.3 451 39.6 451 9 451 C9.15809564 467.84327642 9.15809564 467.84327642 9.36035156 484.68603516 C9.3720383 486.80370273 9.38223016 488.92137931 9.390625 491.0390625 C9.41108887 492.13114014 9.43155273 493.22321777 9.45263672 494.34838867 C9.45548188 500.55795542 9.21311674 504.30364105 5 509 C-0.22259857 513.05630398 -5.65340142 512.77397544 -12 512 C-16.61930892 509.8119063 -18.71115132 507.49644023 -21 503 C-21.36076355 500.42460632 -21.36076355 500.42460632 -21.34057617 497.65893555 C-21.34034958 496.6182341 -21.34012299 495.57753265 -21.33988953 494.5052948 C-21.31666374 492.83784966 -21.31666374 492.83784966 -21.29296875 491.13671875 C-21.28872391 489.98959915 -21.28447906 488.84247955 -21.28010559 487.66059875 C-21.26333484 484.00265879 -21.22568435 480.345273 -21.1875 476.6875 C-21.17245114 474.20508609 -21.15876309 471.72266353 -21.14648438 469.24023438 C-21.11343649 463.15996769 -21.0632524 457.08002344 -21 451 C-21.7180481 451.01080093 -22.43609619 451.02160187 -23.17590332 451.0327301 C-26.46098031 451.07587032 -29.74599745 451.10251914 -33.03125 451.12890625 C-34.16079102 451.14618774 -35.29033203 451.16346924 -36.45410156 451.18127441 C-50.31940798 451.26476987 -59.60484164 446.94401667 -69.671875 437.41796875 C-76.65552363 430.02034095 -81.14944573 420.29136313 -81.09765625 410.140625 C-81.09443359 409.02558594 -81.09121094 407.91054688 -81.08789062 406.76171875 C-81.07532227 405.02341797 -81.07532227 405.02341797 -81.0625 403.25 C-81.05798828 402.07566406 -81.05347656 400.90132813 -81.04882812 399.69140625 C-81.03705094 396.79421928 -81.02060326 393.89713546 -81 391 C-81.63813629 391.00888245 -82.27627258 391.01776489 -82.93374634 391.0269165 C-89.58480865 391.11551746 -96.23570287 391.17578744 -102.88720703 391.21972656 C-105.36839611 391.23982241 -107.84953795 391.26710384 -110.33056641 391.30175781 C-113.90018382 391.35036294 -117.46917416 391.37298972 -121.0390625 391.390625 C-122.14553131 391.41127014 -123.25200012 391.43191528 -124.39199829 391.45318604 C-130.58534375 391.45498414 -134.31658193 391.20150744 -139 387 C-143.05630398 381.77740143 -142.77397544 376.34659858 -142 370 C-139.8119063 365.38069108 -137.49644023 363.28884868 -133 361 C-130.42460632 360.63923645 -130.42460632 360.63923645 -127.65893555 360.65942383 C-126.60379761 360.65978638 -125.54865967 360.66014893 -124.46154785 360.66052246 C-122.81575745 360.68354431 -122.81575745 360.68354431 -121.13671875 360.70703125 C-120.11952759 360.71005249 -119.10233643 360.71307373 -118.05432129 360.71618652 C-114.26527721 360.73184781 -110.47637811 360.77373179 -106.6875 360.8125 C-98.210625 360.874375 -89.73375 360.93625 -81 361 C-81 331.3 -81 301.6 -81 271 C-97.84327642 271.15809564 -97.84327642 271.15809564 -114.68603516 271.36035156 C-116.80370273 271.3720383 -118.92137931 271.38223016 -121.0390625 271.390625 C-122.13114014 271.41108887 -123.22321777 271.43155273 -124.34838867 271.45263672 C-130.55795542 271.45548188 -134.30364105 271.21311674 -139 267 C-143.05630398 261.77740143 -142.77397544 256.34659858 -142 250 C-139.8119063 245.38069108 -137.49644023 243.28884868 -133 241 C-130.42460632 240.63923645 -130.42460632 240.63923645 -127.65893555 240.65942383 C-126.60379761 240.65978638 -125.54865967 240.66014893 -124.46154785 240.66052246 C-122.81575745 240.68354431 -122.81575745 240.68354431 -121.13671875 240.70703125 C-120.11952759 240.71005249 -119.10233643 240.71307373 -118.05432129 240.71618652 C-114.26527721 240.73184781 -110.47637811 240.77373179 -106.6875 240.8125 C-98.210625 240.874375 -89.73375 240.93625 -81 241 C-81 211.3 -81 181.6 -81 151 C-97.84327642 151.15809564 -97.84327642 151.15809564 -114.68603516 151.36035156 C-116.80370273 151.3720383 -118.92137931 151.38223016 -121.0390625 151.390625 C-122.13114014 151.41108887 -123.22321777 151.43155273 -124.34838867 151.45263672 C-130.55795542 151.45548188 -134.30364105 151.21311674 -139 147 C-143.05630398 141.77740143 -142.77397544 136.34659858 -142 130 C-139.8119063 125.38069108 -137.49644023 123.28884868 -133 121 C-130.42460632 120.63923645 -130.42460632 120.63923645 -127.65893555 120.65942383 C-126.09788338 120.65976372 -126.09788338 120.65976372 -124.5052948 120.66011047 C-123.3936647 120.67559433 -122.28203461 120.69107819 -121.13671875 120.70703125 C-119.41603935 120.71339851 -119.41603935 120.71339851 -117.66059875 120.71989441 C-114.00265879 120.73666516 -110.345273 120.77431565 -106.6875 120.8125 C-104.20508609 120.82754886 -101.72266353 120.84123691 -99.24023438 120.85351562 C-93.15996769 120.88656351 -87.08002344 120.9367476 -81 121 C-81.01080093 120.2819519 -81.02160187 119.56390381 -81.0327301 118.82409668 C-81.07587032 115.53901969 -81.10251914 112.25400255 -81.12890625 108.96875 C-81.14618774 107.83920898 -81.16346924 106.70966797 -81.18127441 105.54589844 C-81.26476987 91.68059202 -76.94401667 82.39515836 -67.41796875 72.328125 C-60.02034095 65.34447637 -50.29136313 60.85055427 -40.140625 60.90234375 C-39.02558594 60.90556641 -37.91054687 60.90878906 -36.76171875 60.91210938 C-35.60285156 60.92048828 -34.44398437 60.92886719 -33.25 60.9375 C-32.07566406 60.94201172 -30.90132813 60.94652344 -29.69140625 60.95117188 C-26.79421928 60.96294906 -23.89713546 60.97939674 -21 61 C-21.00888245 60.36186371 -21.01776489 59.72372742 -21.0269165 59.06625366 C-21.11551746 52.41519135 -21.17578744 45.76429713 -21.21972656 39.11279297 C-21.23982241 36.63160389 -21.26710384 34.15046205 -21.30175781 31.66943359 C-21.35036294 28.09981618 -21.37298972 24.53082584 -21.390625 20.9609375 C-21.42159271 19.30123428 -21.42159271 19.30123428 -21.45318604 17.60800171 C-21.45498414 11.41465625 -21.20150744 7.68341807 -17 3 C-11.77740143 -1.05630398 -6.34659858 -0.77397544 0 0 Z M-45.8125 95.4375 C-50.25827538 100.6454083 -51.12341936 104.5761775 -51.12863445 111.28089714 C-51.1318589 112.33155416 -51.13508335 113.38221119 -51.1384055 114.4647063 C-51.1368569 115.61265175 -51.1353083 116.76059719 -51.13371277 117.94332886 C-51.13597833 119.16772773 -51.13824388 120.3921266 -51.14057809 121.65362847 C-51.14581439 125.0493071 -51.14656279 128.44493279 -51.14538372 131.8406117 C-51.14517965 135.50395414 -51.15069902 139.16728868 -51.15544128 142.83062744 C-51.16374693 150.00654796 -51.16649608 157.18246027 -51.16705366 164.35838519 C-51.16752884 170.19106419 -51.16958366 176.02374047 -51.17275429 181.85641861 C-51.18156042 198.39267812 -51.1861737 214.92893114 -51.18542381 231.46519302 C-51.18538386 232.35662561 -51.1853439 233.2480582 -51.18530273 234.16650391 C-51.18526185 235.05902466 -51.18522097 235.95154541 -51.18517885 236.87111224 C-51.18477234 251.3381628 -51.19434343 265.80518734 -51.2084411 280.27223037 C-51.22280187 295.12643733 -51.22971146 309.98063159 -51.22884732 324.83484566 C-51.22851526 333.17455464 -51.23126635 341.51423633 -51.24202538 349.85393906 C-51.25112641 356.95396939 -51.25330888 364.05396007 -51.24651595 371.15399371 C-51.24324881 374.77610002 -51.24320106 378.39813024 -51.2518692 382.02022934 C-51.26117159 385.94775617 -51.25496325 389.87517163 -51.24723816 393.80270386 C-51.25238172 394.94618786 -51.25752529 396.08967186 -51.26282471 397.26780689 C-51.29243721 407.28805541 -51.29243721 407.28805541 -46.5625 415.8125 C-41.3545917 420.25827538 -37.4238225 421.12341936 -30.71910286 421.12863445 C-29.66844584 421.1318589 -28.61778881 421.13508335 -27.5352937 421.1384055 C-26.38734825 421.1368569 -25.23940281 421.1353083 -24.05667114 421.13371277 C-22.83227227 421.13597833 -21.6078734 421.13824388 -20.34637153 421.14057809 C-16.9506929 421.14581439 -13.55506721 421.14656279 -10.1593883 421.14538372 C-6.49604586 421.14517965 -2.83271132 421.15069902 0.83062744 421.15544128 C8.00654796 421.16374693 15.18246027 421.16649608 22.35838519 421.16705366 C28.19106419 421.16752884 34.02374047 421.16958366 39.85641861 421.17275429 C56.39267812 421.18156042 72.92893114 421.1861737 89.46519302 421.18542381 C90.80234191 421.18536388 90.80234191 421.18536388 92.16650391 421.18530273 C93.05902466 421.18526185 93.95154541 421.18522097 94.87111224 421.18517885 C109.3381628 421.18477234 123.80518734 421.19434343 138.27223037 421.2084411 C153.12643733 421.22280187 167.98063159 421.22971146 182.83484566 421.22884732 C191.17455464 421.22851526 199.51423633 421.23126635 207.85393906 421.24202538 C214.95396939 421.25112641 222.05396007 421.25330888 229.15399371 421.24651595 C232.77610002 421.24324881 236.39813024 421.24320106 240.02022934 421.2518692 C243.94775617 421.26117159 247.87517163 421.25496325 251.80270386 421.24723816 C253.51792986 421.2549535 253.51792986 421.2549535 255.26780689 421.26282471 C265.28805541 421.29243721 265.28805541 421.29243721 273.8125 416.5625 C278.25827538 411.3545917 279.12341936 407.4238225 279.12863445 400.71910286 C279.1318589 399.66844584 279.13508335 398.61778881 279.1384055 397.5352937 C279.1368569 396.38734825 279.1353083 395.23940281 279.13371277 394.05667114 C279.13597833 392.83227227 279.13824388 391.6078734 279.14057809 390.34637153 C279.14581439 386.9506929 279.14656279 383.55506721 279.14538372 380.1593883 C279.14517965 376.49604586 279.15069902 372.83271132 279.15544128 369.16937256 C279.16374693 361.99345204 279.16649608 354.81753973 279.16705366 347.64161481 C279.16752884 341.80893581 279.16958366 335.97625953 279.17275429 330.14358139 C279.18156042 313.60732188 279.1861737 297.07106886 279.18542381 280.53480698 C279.18538386 279.64337439 279.1853439 278.7519418 279.18530273 277.83349609 C279.18526185 276.94097534 279.18522097 276.04845459 279.18517885 275.12888776 C279.18477234 260.6618372 279.19434343 246.19481266 279.2084411 231.72776963 C279.22280187 216.87356267 279.22971146 202.01936841 279.22884732 187.16515434 C279.22851526 178.82544536 279.23126635 170.48576367 279.24202538 162.14606094 C279.25112641 155.04603061 279.25330888 147.94603993 279.24651595 140.84600629 C279.24324881 137.22389998 279.24320106 133.60186976 279.2518692 129.97977066 C279.26117159 126.05224383 279.25496325 122.12482837 279.24723816 118.19729614 C279.2549535 116.48207014 279.2549535 116.48207014 279.26282471 114.73219311 C279.29243721 104.71194459 279.29243721 104.71194459 274.5625 96.1875 C269.3545917 91.74172462 265.4238225 90.87658064 258.71910286 90.87136555 C257.66844584 90.8681411 256.61778881 90.86491665 255.5352937 90.8615945 C254.38734825 90.8631431 253.23940281 90.8646917 252.05667114 90.86628723 C250.83227227 90.86402167 249.6078734 90.86175612 248.34637153 90.85942191 C244.9506929 90.85418561 241.55506721 90.85343721 238.1593883 90.85461628 C234.49604586 90.85482035 230.83271132 90.84930098 227.16937256 90.84455872 C219.99345204 90.83625307 212.81753973 90.83350392 205.64161481 90.83294634 C199.80893581 90.83247116 193.97625953 90.83041634 188.14358139 90.82724571 C171.60732188 90.81843958 155.07106886 90.8138263 138.53480698 90.81457619 C137.19765809 90.81463612 137.19765809 90.81463612 135.83349609 90.81469727 C134.94097534 90.81473815 134.04845459 90.81477903 133.12888776 90.81482115 C118.6618372 90.81522766 104.19481266 90.80565657 89.72776963 90.7915589 C74.87356267 90.77719813 60.01936841 90.77028854 45.16515434 90.77115268 C36.82544536 90.77148474 28.48576367 90.76873365 20.14606094 90.75797462 C13.04603061 90.74887359 5.94603993 90.74669112 -1.15399371 90.75348405 C-4.77610002 90.75675119 -8.39813024 90.75679894 -12.02022934 90.7481308 C-15.94775617 90.73882841 -19.87517163 90.74503675 -23.80270386 90.75276184 C-25.51792986 90.7450465 -25.51792986 90.7450465 -27.26780689 90.73717529 C-37.28805541 90.70756279 -37.28805541 90.70756279 -45.8125 95.4375 Z " fill="#323D3D" transform="translate(142,0)"/>
<path d="M0 0 C1.22200859 -0.02870934 1.22200859 -0.02870934 2.46870422 -0.05799866 C3.33650009 -0.06133713 4.20429596 -0.0646756 5.09838867 -0.06811523 C6.00457443 -0.07810043 6.91076019 -0.08808563 7.84440613 -0.09837341 C9.75820362 -0.11353035 11.67208005 -0.12059996 13.5859375 -0.12011719 C16.49703405 -0.12666552 19.40469402 -0.18113287 22.31518555 -0.23803711 C24.18040834 -0.24684294 26.04564723 -0.25279464 27.91088867 -0.25561523 C28.77261185 -0.27717178 29.63433502 -0.29872833 30.52217102 -0.32093811 C37.21825693 -0.24594483 40.83095869 1.9621495 45.70385742 6.43579102 C46.45795898 7.11496582 47.21206055 7.79414063 47.98901367 8.49389648 C48.57553711 9.09089355 49.16206055 9.68789062 49.76635742 10.30297852 C50.41733398 10.96040039 51.06831055 11.61782227 51.73901367 12.29516602 C52.38741211 12.96032227 53.03581055 13.62547852 53.70385742 14.31079102 C54.38319336 14.99915039 55.0625293 15.68750977 55.76245117 16.39672852 C57.41432628 18.07186947 59.06129667 19.75152462 60.70385742 21.43579102 C63.9102458 20.02898313 65.99567335 18.36001645 68.41870117 15.84594727 C69.10512695 15.14405273 69.79155273 14.4421582 70.4987793 13.71899414 C71.92332964 12.24250031 73.34780919 10.76593817 74.7722168 9.28930664 C75.45993164 8.58612305 76.14764648 7.88293945 76.85620117 7.15844727 C77.47487061 6.51657471 78.09354004 5.87470215 78.73095703 5.21337891 C84.05511 0.41630456 88.16721674 -0.04145054 95.09838867 -0.06811523 C96.00457443 -0.07810043 96.91076019 -0.08808563 97.84440613 -0.09837341 C99.75820362 -0.11353035 101.67208005 -0.12059996 103.5859375 -0.12011719 C106.49703405 -0.12666552 109.40469402 -0.18113287 112.31518555 -0.23803711 C114.18040834 -0.24684294 116.04564723 -0.25279464 117.91088867 -0.25561523 C118.77261185 -0.27717178 119.63433502 -0.29872833 120.52217102 -0.32093811 C132.8585228 -0.18277628 140.94159639 11.37760174 149.06713867 19.53344727 C150.34860072 20.81355989 151.63035935 22.09337568 152.91239929 23.37290955 C155.58581026 26.04338551 158.25560456 28.7174109 160.92285156 31.39404297 C164.33674902 34.81936872 167.75959489 38.23558964 171.1851778 41.64922428 C173.82850938 44.28532297 176.46705191 46.92617371 179.10417747 49.56847954 C180.36456847 50.83020127 181.62643738 52.09044847 182.88982582 53.34916878 C184.65344752 55.10769798 186.41050936 56.8725343 188.16601562 58.63916016 C188.68500427 59.15410034 189.20399292 59.66904053 189.7387085 60.19958496 C194.30667251 64.82115402 197.07024852 68.37049395 197.10499573 74.99446106 C197.11779068 76.10044144 197.13058563 77.20642181 197.14376831 78.34591675 C197.14240875 79.54966949 197.14104919 80.75342224 197.13964844 81.99365234 C197.14972427 83.26900345 197.15980011 84.54435455 197.17018127 85.85835266 C197.19663721 89.35026128 197.2037129 92.84194922 197.20562863 96.33394837 C197.20776406 98.5182201 197.21417442 100.70243609 197.22212029 102.88669395 C197.24986089 110.51450525 197.26212765 118.14215947 197.25976562 125.77001953 C197.2579644 132.86787592 197.28960125 139.96504746 197.33699661 147.06273061 C197.37629528 153.16654785 197.3923143 159.27014195 197.3903994 165.37408465 C197.38963642 169.01527321 197.39807755 172.6558531 197.42993355 176.29691505 C197.46452651 180.36166382 197.45069415 184.42489024 197.43261719 188.48974609 C197.45790497 190.28626617 197.45790497 190.28626617 197.48370361 192.11907959 C197.39729741 199.77154344 196.07002604 203.96409055 190.70385742 209.43579102 C190.22109061 209.96557273 189.7383238 210.49535444 189.2409277 211.04119015 C187.78858621 212.607021 186.29389314 214.11651068 184.77783203 215.62060547 C183.94000435 216.46369011 183.94000435 216.46369011 183.08525085 217.32380676 C181.26384935 219.15390933 179.43535207 220.97671763 177.60620117 222.79907227 C176.32608855 224.08053431 175.04627275 225.36229294 173.76673889 226.64433289 C171.09626293 229.31774386 168.42223754 231.98753816 165.74560547 234.65478516 C162.32027972 238.06868261 158.9040588 241.49152848 155.49042416 244.9171114 C152.85432546 247.56044297 150.21347473 250.1989855 147.5711689 252.83611107 C146.30944717 254.09650206 145.04919997 255.35837097 143.79047966 256.62175941 C142.03195046 258.38538111 140.26711414 260.14244296 138.50048828 261.89794922 C137.9855481 262.41693787 137.47060791 262.93592651 136.94006348 263.47064209 C132.88464434 267.47902288 129.29795294 270.77683189 123.40771484 270.87158203 C122.59304245 270.89072159 121.77837006 270.90986115 120.93901062 270.92958069 C120.07121475 270.93291916 119.20341888 270.93625763 118.30932617 270.93969727 C117.40314041 270.94968246 116.49695465 270.95966766 115.56330872 270.96995544 C113.64951122 270.98511238 111.7356348 270.99218199 109.82177734 270.99169922 C106.91068079 270.99824755 104.00302083 271.05271491 101.0925293 271.10961914 C99.2273065 271.11842497 97.36206762 271.12437667 95.49682617 271.12719727 C94.635103 271.14875381 93.77337982 271.17031036 92.88554382 271.19252014 C86.18945791 271.11752686 82.57675616 268.90943253 77.70385742 264.43579102 C76.94975586 263.75661621 76.1956543 263.07744141 75.41870117 262.37768555 C74.53891602 261.48218994 74.53891602 261.48218994 73.64135742 260.56860352 C72.66489258 259.5824707 72.66489258 259.5824707 71.66870117 258.57641602 C71.02030273 257.91125977 70.3719043 257.24610352 69.70385742 256.56079102 C69.02452148 255.87243164 68.34518555 255.18407227 67.64526367 254.47485352 C65.99338856 252.79971256 64.34641817 251.12005741 62.70385742 249.43579102 C59.49746905 250.8425989 57.4120415 252.51156558 54.98901367 255.02563477 C54.30258789 255.7275293 53.61616211 256.42942383 52.90893555 257.15258789 C51.48438521 258.62908172 50.05990565 260.10564386 48.63549805 261.58227539 C47.60392578 262.63705078 47.60392578 262.63705078 46.55151367 263.71313477 C45.93284424 264.35500732 45.3141748 264.99687988 44.67675781 265.65820312 C39.35260484 270.45527747 35.24049811 270.91303257 28.30932617 270.93969727 C27.40314041 270.94968246 26.49695465 270.95966766 25.56330872 270.96995544 C23.64951122 270.98511238 21.7356348 270.99218199 19.82177734 270.99169922 C16.91068079 270.99824755 14.00302083 271.05271491 11.0925293 271.10961914 C9.2273065 271.11842497 7.36206762 271.12437667 5.49682617 271.12719727 C4.635103 271.14875381 3.77337982 271.17031036 2.88554382 271.19252014 C-9.45080796 271.05435831 -17.53388154 259.49398029 -25.65942383 251.33813477 C-26.94088588 250.05802214 -28.22264451 248.77820635 -29.50468445 247.49867249 C-32.17809542 244.82819652 -34.84788972 242.15417113 -37.51513672 239.47753906 C-40.92903417 236.05221331 -44.35188004 232.6359924 -47.77746296 229.22235775 C-50.42079454 226.58625906 -53.05933706 223.94540832 -55.69646263 221.30310249 C-56.95685362 220.04138077 -58.21872254 218.78113356 -59.48211098 217.52241325 C-61.24573267 215.76388405 -63.00279452 213.99904773 -64.75830078 212.23242188 C-65.27728943 211.71748169 -65.79627808 211.2025415 -66.33099365 210.67199707 C-70.89895767 206.05042801 -73.66253367 202.50108808 -73.69728088 195.87712097 C-73.71007584 194.77114059 -73.72287079 193.66516022 -73.73605347 192.52566528 C-73.73469391 191.32191254 -73.73333435 190.11815979 -73.73193359 188.87792969 C-73.74704735 186.96490303 -73.74704735 186.96490303 -73.76246643 185.01322937 C-73.78892237 181.52132076 -73.79599806 178.02963281 -73.79791379 174.53763366 C-73.80004922 172.35336193 -73.80645958 170.16914594 -73.81440544 167.98488808 C-73.84214604 160.35707679 -73.8544128 152.72942256 -73.85205078 145.1015625 C-73.85024956 138.00370611 -73.88188641 130.90653457 -73.92928177 123.80885142 C-73.96858043 117.70503418 -73.98459945 111.60144009 -73.98268455 105.49749738 C-73.98192158 101.85630882 -73.99036271 98.21572894 -74.0222187 94.57466698 C-74.05681167 90.50991821 -74.04297931 86.44669179 -74.02490234 82.38183594 C-74.05019012 80.58531586 -74.05019012 80.58531586 -74.07598877 78.75250244 C-73.98958257 71.10003859 -72.66231119 66.90749148 -67.29614258 61.43579102 C-66.57199236 60.64111845 -66.57199236 60.64111845 -65.83321285 59.83039188 C-64.38087137 58.26456103 -62.8861783 56.75507135 -61.37011719 55.25097656 C-60.8115654 54.68892014 -60.25301361 54.12686371 -59.67753601 53.54777527 C-57.85613451 51.7176727 -56.02763722 49.89486441 -54.19848633 48.07250977 C-52.9183737 46.79104772 -51.63855791 45.50928909 -50.35902405 44.22724915 C-47.68854809 41.55383817 -45.01452269 38.88404388 -42.33789062 36.21679688 C-38.91256487 32.80289942 -35.49634396 29.38005355 -32.08270931 25.95447063 C-29.44661062 23.31113906 -26.80575988 20.67259653 -24.16345406 18.03547096 C-22.90173233 16.77507997 -21.64148512 15.51321106 -20.38276482 14.24982262 C-18.62423562 12.48620092 -16.8593993 10.72913908 -15.09277344 8.97363281 C-14.57783325 8.45464417 -14.06289307 7.93565552 -13.53234863 7.40093994 C-9.4769295 3.39255915 -5.8902381 0.09475014 0 0 Z M-4.23364258 38.36547852 C-5.07379284 39.01973375 -5.07379284 39.01973375 -5.93091583 39.68720627 C-10.20945303 43.06065782 -14.27327558 46.63842906 -18.29614258 50.31079102 C-19.18921364 51.11138191 -19.18921364 51.11138191 -20.10032654 51.92814636 C-36.71951649 66.97711647 -45.11221514 81.74810917 -46.53190613 104.35737991 C-47.70411858 129.7289535 -45.84486463 155.19891833 -43.29614258 180.43579102 C-33.39614258 180.43579102 -23.49614258 180.43579102 -13.29614258 180.43579102 C-13.08661888 173.75030073 -13.08661888 173.75030073 -12.90820312 167.06396484 C-12.55661442 158.14250845 -12.55661442 158.14250845 -9.29614258 154.43579102 C-5.63196728 151.60100675 -2.88541273 151.02566905 1.70385742 151.06079102 C2.71448242 151.05305664 3.72510742 151.04532227 4.76635742 151.03735352 C9.07567316 151.62186177 11.60107495 153.06171807 14.32348633 156.45385742 C16.26480821 160.64757965 16.13392263 164.3671352 16.10229492 168.93579102 C16.1051651 169.8490918 16.10803528 170.76239258 16.11099243 171.70336914 C16.11302931 173.62980776 16.10752578 175.55626723 16.0949707 177.48266602 C16.07891168 180.42584626 16.09483213 183.36765332 16.11401367 186.31079102 C16.11203117 188.18579404 16.10818736 190.06079621 16.10229492 191.93579102 C16.11140396 193.25160156 16.11140396 193.25160156 16.12069702 194.59399414 C16.06642517 199.32506603 15.90563845 202.68565798 12.70385742 206.43579102 C8.88634467 209.42463916 5.87513964 209.83827316 1.09057617 209.94750977 C-0.1565918 209.98295898 -1.40375977 210.0184082 -2.6887207 210.05493164 C-3.98229492 210.07749023 -5.27586914 210.10004883 -6.60864258 210.12329102 C-7.92155273 210.15745117 -9.23446289 210.19161133 -10.5871582 210.22680664 C-13.82340109 210.30918373 -17.05937643 210.37837117 -20.29614258 210.43579102 C-15.31000775 216.35367831 -10.21260653 222.16726883 -4.89575195 227.79052734 C-3.91463677 228.8436018 -2.9491879 229.91149775 -2.00024414 230.99365234 C2.68660541 236.32013233 7.23487106 240.86948863 14.56098938 241.84124756 C20.91728075 242.11079775 25.25977374 240.66480822 30.074646 236.49617004 C33.00380582 233.67193793 35.70272342 230.6746614 38.39135742 227.62329102 C40.07815516 225.79115877 41.7765119 223.97045161 43.47822571 222.1521759 C44.52488706 221.02530159 45.5607865 219.88829849 46.58366394 218.73979187 C50.11908796 214.81353147 53.2429019 211.87367138 58.53588867 210.93188477 C59.51944336 210.91254883 60.50299805 210.89321289 61.51635742 210.87329102 C62.98008789 210.80948242 62.98008789 210.80948242 64.47338867 210.74438477 C71.6276505 212.27558712 76.18551506 217.82093946 80.95385742 223.05297852 C81.41986862 223.55795364 81.88587982 224.06292877 82.36601257 224.58320618 C86.34734533 228.8979354 86.34734533 228.8979354 88.10961914 230.9387207 C88.57255371 231.47142578 89.03548828 232.00413086 89.51245117 232.55297852 C89.91520264 233.02574219 90.3179541 233.49850586 90.73291016 233.9855957 C95.84654697 239.01115722 98.94260168 241.14399142 106.28979492 241.23266602 C114.98167858 241.10890205 120.87227485 237.87577081 127.64135742 232.50610352 C128.2014576 232.06993336 128.76155777 231.6337632 129.33863068 231.18437576 C133.61716788 227.81092421 137.68099042 224.23315297 141.70385742 220.56079102 C142.29923813 220.02706375 142.89461884 219.49333649 143.50804138 218.94343567 C160.12723133 203.89446556 168.51992998 189.12347286 169.93962097 166.51420212 C171.11183343 141.14262853 169.25257948 115.67266371 166.70385742 90.43579102 C156.80385742 90.43579102 146.90385742 90.43579102 136.70385742 90.43579102 C136.49433373 97.12128131 136.49433373 97.12128131 136.31591797 103.80761719 C135.96432927 112.72907358 135.96432927 112.72907358 132.70385742 116.43579102 C129.03968212 119.27057529 126.29312758 119.84591298 121.70385742 119.81079102 C120.69323242 119.81852539 119.68260742 119.82625977 118.64135742 119.83422852 C114.33204168 119.24972026 111.80663989 117.80986396 109.08422852 114.41772461 C107.14290663 110.22400238 107.27379222 106.50444683 107.30541992 101.93579102 C107.30111465 100.56583984 107.30111465 100.56583984 107.29672241 99.16821289 C107.29468553 97.24177427 107.30018907 95.3153148 107.31274414 93.38891602 C107.32880316 90.44573577 107.31288272 87.50392871 107.29370117 84.56079102 C107.29568367 82.68578799 107.29952748 80.81078583 107.30541992 78.93579102 C107.29934723 78.05858398 107.29327454 77.18137695 107.28701782 76.27758789 C107.34128967 71.546516 107.50207639 68.18592406 110.70385742 64.43579102 C114.52137017 61.44694287 117.5325752 61.03330887 122.31713867 60.92407227 C124.18789063 60.87089844 124.18789063 60.87089844 126.09643555 60.81665039 C127.39000977 60.7940918 128.68358398 60.7715332 130.01635742 60.74829102 C131.32926758 60.71413086 132.64217773 60.6799707 133.99487305 60.64477539 C137.23111593 60.5623983 140.46709127 60.49321086 143.70385742 60.43579102 C138.71772259 54.51790372 133.62032137 48.7043132 128.3034668 43.08105469 C127.32235162 42.02798023 126.35690274 40.96008428 125.40795898 39.87792969 C120.26774568 34.03621384 115.31167362 29.63122379 107.32104492 28.36938477 C98.15533921 28.67505537 90.06588206 34.84487536 83.86212158 41.12171936 C70.31943979 56.4225019 74.36671861 80.46641937 75.1932373 99.37548828 C75.42080618 105.13988356 75.51928873 110.90645338 75.62963867 116.67407227 C75.86360634 127.93363617 76.23756805 139.18361606 76.70385742 150.43579102 C77.33168625 150.44165726 77.95951508 150.4475235 78.60636902 150.4535675 C85.14412562 150.51752876 91.68139122 150.60195585 98.21875 150.69824219 C100.65813725 150.73148518 103.0976013 150.75951903 105.53710938 150.78222656 C109.04484774 150.81578319 112.55188267 150.8681015 116.05932617 150.92407227 C117.14908249 150.93046219 118.23883881 150.93685211 119.36161804 150.94343567 C128.83826094 151.12721712 128.83826094 151.12721712 132.70385742 154.43579102 C135.53864169 158.09996632 136.11397939 160.84652086 136.07885742 165.43579102 C136.0865918 166.44641602 136.09432617 167.45704102 136.10229492 168.49829102 C135.63811684 171.92046671 134.81318292 173.70932661 132.70385742 176.43579102 C128.6396727 179.47288931 125.6250417 179.81441361 120.60620117 179.82397461 C119.56376755 179.83186005 119.56376755 179.83186005 118.50027466 179.83990479 C116.21373712 179.85305831 113.92790147 179.84438373 111.64135742 179.83422852 C110.04622261 179.8362506 108.45108869 179.83916316 106.85595703 179.84292603 C103.51708146 179.84734306 100.17844709 179.84093846 96.83959961 179.8269043 C92.56565653 179.80981259 88.29227868 179.81965713 84.01835632 179.83762169 C80.72574628 179.8484764 77.43326964 179.84500548 74.14065552 179.83723831 C72.56503227 179.83524096 70.98939681 179.83767923 69.41378784 179.84467697 C67.20937138 179.85231949 65.00586274 179.8406493 62.80151367 179.82397461 C61.54862549 179.82158783 60.2957373 179.81920105 59.00488281 179.81674194 C54.53751994 179.30119122 51.9224257 177.77700143 48.92333984 174.47607422 C46.99754633 169.67489171 47.22219986 164.91798301 47.19213867 159.79125977 C47.17418747 158.66633621 47.15623627 157.54141266 47.13774109 156.38240051 C47.08364027 152.79606859 47.04974217 149.20986977 47.01635742 145.62329102 C46.98318425 143.18902771 46.9486946 140.75478196 46.9128418 138.32055664 C46.82791379 132.35908745 46.75956276 126.39760102 46.70385742 120.43579102 C46.07602859 120.42992477 45.44819977 120.42405853 44.80134583 120.41801453 C38.26358922 120.35405327 31.72632362 120.26962618 25.18896484 120.17333984 C22.74957759 120.14009685 20.31011354 120.112063 17.87060547 120.08935547 C14.3628671 120.05579884 10.85583217 120.00348053 7.34838867 119.94750977 C6.25863235 119.94111984 5.16887604 119.93472992 4.0460968 119.92814636 C-5.43054609 119.74436491 -5.43054609 119.74436491 -9.29614258 116.43579102 C-12.13092685 112.77161572 -12.70626454 110.02506117 -12.67114258 105.43579102 C-12.67887695 104.42516602 -12.68661133 103.41454102 -12.69458008 102.37329102 C-12.11703535 98.11531419 -10.67094267 95.61248592 -7.41210938 92.82324219 C-2.59529061 90.67845013 2.13142805 90.95466257 7.34838867 90.92407227 C8.47331223 90.90612106 9.59823578 90.88816986 10.75724792 90.86967468 C14.34357985 90.81557386 17.92977867 90.78167576 21.51635742 90.74829102 C23.95062073 90.71511785 26.38486648 90.68062819 28.8190918 90.64477539 C34.78056099 90.55984738 40.74204741 90.49149635 46.70385742 90.43579102 C50.00377761 66.68253482 50.00377761 66.68253482 42.36791992 45.01391602 C40.58936447 42.90135462 38.69927136 40.96795445 36.70385742 39.06079102 C35.79039551 38.16021973 34.87693359 37.25964844 33.93579102 36.33178711 C27.28211627 30.69703094 21.40920847 29.439232 12.84643555 29.83364868 C6.04403208 30.54796213 1.00233775 34.21196553 -4.23364258 38.36547852 Z " fill="#323D3D" transform="translate(194.296142578125,120.564208984375)"/>
</svg>
