<svg 
  id="Layer_1" 
  enable-background="new 0 0 512 512" 
  viewBox="0 0 512 512" 
  xmlns="http://www.w3.org/2000/svg"
  height="64"
  width="64"
><path clip-rule="evenodd" d="m94.98 16h222.37c11.95 0 21.69 9.74 21.69 21.69v179.18c-6.2-1.14-12.58-1.74-19.11-1.74-57.88 0-104.8 46.93-104.8 104.8 0 57.88 46.93 104.8 104.8 104.8 6.45 0 12.84-.59 19.1-1.74-.17 11.8-9.84 21.37-21.68 21.37h-279.66c-11.95 0-21.69-9.74-21.69-21.69v-327.69h52.29c14.71 0 26.69-11.98 26.69-26.69zm395.08 474.06c7.92-7.92 7.92-20.87 0-28.79l-45.91-45.91c-4.4-4.4-11.57-4.4-15.96 0l-12.82 12.82c-4.4 4.4-4.4 11.57 0 15.96l45.91 45.91c7.91 7.93 20.87 7.93 28.78.01zm-170.13-103.93c18.28 0 34.83-7.41 46.81-19.39s19.39-28.53 19.39-46.81-7.41-34.83-19.39-46.81-28.53-19.39-46.81-19.39-34.83 7.41-46.81 19.39-19.39 28.53-19.39 46.81 7.41 34.83 19.39 46.81c11.97 11.98 28.53 19.39 46.81 19.39zm53.88-12.32c13.79-13.79 22.32-32.84 22.32-53.88s-8.53-40.09-22.32-53.88-32.84-22.32-53.88-22.32-40.09 8.53-53.88 22.32-22.32 32.84-22.32 53.88 8.53 40.09 22.32 53.88 32.84 22.32 53.88 22.32 40.09-8.53 53.88-22.32zm10.55 28.78c6.8-5.31 12.92-11.43 18.23-18.23l21.48 21.48c-1.04.72-2.02 1.54-2.94 2.46l-12.82 12.82c-.92.92-1.74 1.91-2.46 2.94zm-64.43 12.14c52.36 0 94.81-42.45 94.81-94.81s-42.45-94.8-94.81-94.8-94.8 42.45-94.8 94.8c-.01 52.37 42.44 94.81 94.8 94.81zm-250.82-63.01h133c2.76 0 5-2.24 5-5s-2.24-5-5-5h-133c-2.76 0-5 2.24-5 5s2.24 5 5 5zm0-46.62h131.64c2.76 0 5-2.24 5-5s-2.24-5-5-5h-131.64c-2.76 0-5 2.24-5 5 0 2.77 2.24 5 5 5zm0-46.61h149.92c2.76 0 5-2.24 5-5s-2.24-5-5-5h-149.92c-2.76 0-5 2.24-5 5s2.24 5 5 5zm0-46.62h216.82c2.76 0 5-2.24 5-5s-2.24-5-5-5h-216.82c-2.76 0-5 2.24-5 5 0 2.77 2.24 5 5 5zm108.41-93.23h108.41c2.76 0 5-2.24 5-5s-2.24-5-5-5h-108.41c-2.76 0-5 2.24-5 5s2.24 5 5 5zm-108.41 46.62h216.82c2.76 0 5-2.24 5-5s-2.24-5-5-5h-216.82c-2.76 0-5 2.24-5 5s2.24 5 5 5zm-48.11-80.28h47.29c9.19 0 16.69-7.5 16.69-16.69v-47.29z" fill="#d3d3d3" fill-rule="evenodd"/></svg>