<svg enable-background="new 0 0 512 512" height="512" viewBox="0 0 512 512" width="512" xmlns="http://www.w3.org/2000/svg" xmlns:xlink="http://www.w3.org/1999/xlink"><linearGradient id="SVGID_1_" gradientUnits="userSpaceOnUse" x1="87.133" x2="440.889" y1="403.16" y2="49.404"><stop offset="0" stop-color="#1d1d1d"/><stop offset="1" stop-color="#1d1d1d"/></linearGradient><g id="_x31_5_Lock"><path d="m443.228 351.06v-40.295c0-2.945-2.385-5.333-5.333-5.333h-78.603c-2.948 0-5.333 2.388-5.333 5.333s2.385 5.333 5.333 5.333h73.271v34.975c-6.086 2.207-10.472 7.991-10.472 14.828 0 8.707 7.103 15.789 15.831 15.789 8.707 0 15.789-7.082 15.789-15.789 0-6.852-4.392-12.645-10.483-14.841zm-5.306 19.964c-2.849 0-5.166-2.299-5.166-5.124 0-2.846 2.317-5.161 5.166-5.161 2.828 0 5.124 2.315 5.124 5.161 0 2.825-2.297 5.124-5.124 5.124zm52.091-108.146c-6.374 0-11.788 4.025-13.938 9.652h-98.811c-2.948 0-5.333 2.388-5.333 5.333s2.385 5.333 5.333 5.333h98.832c2.166 5.58 7.567 9.564 13.918 9.564 8.228 0 14.925-6.694 14.925-14.922-.001-8.25-6.698-14.96-14.926-14.96zm0 19.216c-2.364 0-4.291-1.909-4.291-4.257 0-2.367 1.927-4.294 4.291-4.294 2.349 0 4.26 1.927 4.26 4.294 0 2.348-1.911 4.257-4.26 4.257zm6.14-80.345c-6.841 0-12.629 4.384-14.843 10.47h-25.338c-2.343 0-4.411 1.528-5.098 3.765l-7.957 25.884h-58.559c-2.947 0-5.333 2.388-5.333 5.333s2.385 5.333 5.333 5.333h62.496c2.343 0 4.411-1.528 5.098-3.765l7.957-25.884h21.376c2.192 6.112 7.997 10.522 14.868 10.522 8.717 0 15.81-7.09 15.81-15.808 0-8.739-7.093-15.85-15.81-15.85zm0 20.991c-2.859 0-5.182-2.307-5.182-5.143 0-2.859 2.323-5.184 5.182-5.184 2.838 0 5.145 2.325 5.145 5.184 0 2.837-2.307 5.143-5.145 5.143zm-77.515-27.219-37.589.007c-2.948 0-5.333 2.388-5.333 5.333s2.39 5.333 5.333 5.333l37.593-.007c2.161 5.598 7.572 9.6 13.936 9.6 8.233 0 14.93-6.7 14.93-14.933 0-8.251-6.697-14.967-14.93-14.967-6.369-.001-11.782 4.016-13.94 9.634zm18.206 5.332c0 2.354-1.911 4.268-4.265 4.268-2.369 0-4.301-1.914-4.301-4.268 0-2.372 1.932-4.301 4.301-4.301 2.354 0 4.265 1.929 4.265 4.301zm-296.775 77.01c0-2.945-2.385-5.333-5.333-5.333h-98.811c-2.15-5.627-7.564-9.652-13.938-9.652-8.228 0-14.925 6.71-14.925 14.959 0 8.228 6.697 14.922 14.925 14.922 6.35 0 11.752-3.984 13.918-9.564h98.832c2.947 0 5.332-2.387 5.332-5.332zm-118.082 4.231c-2.349 0-4.26-1.909-4.26-4.257 0-2.367 1.911-4.294 4.26-4.294 2.364 0 4.291 1.927 4.291 4.294 0 2.348-1.927 4.257-4.291 4.257zm71.375-86.573c-2.157-5.618-7.571-9.635-13.94-9.635-8.233 0-14.93 6.715-14.93 14.967 0 8.233 6.697 14.933 14.93 14.933 6.365 0 11.775-4.001 13.936-9.6l37.593.007c2.942 0 5.333-2.388 5.333-5.333s-2.385-5.333-5.333-5.333zm-13.941 9.6c-2.354 0-4.265-1.914-4.265-4.268 0-2.372 1.911-4.301 4.265-4.301 2.369 0 4.301 1.929 4.301 4.301.001 2.354-1.931 4.268-4.301 4.268zm285.412-35.883 105.105.055h.005c2.951 0 5.333-2.395 5.333-5.333v-48.28c6.099-2.194 10.499-7.981 10.499-14.826 0-8.738-7.093-15.847-15.81-15.847-8.738 0-15.847 7.108-15.847 15.847 0 6.835 4.395 12.615 10.493 14.817v42.953l-99.767-.052c-.005 0-.005 0-.005 0-2.942 0-5.333 2.385-5.333 5.33s2.385 5.333 5.327 5.336zm105.131-73.565c2.838 0 5.145 2.325 5.145 5.182 0 2.837-2.306 5.143-5.142 5.144-.008 0-.015-.005-.023-.005-.001 0-.002.001-.003.001-2.848-.014-5.158-2.311-5.158-5.141 0-2.856 2.322-5.181 5.181-5.181zm-390.527 255.399v-34.975h73.271c2.947 0 5.333-2.388 5.333-5.333s-2.385-5.333-5.333-5.333h-78.604c-2.947 0-5.333 2.388-5.333 5.333v40.295c-6.091 2.197-10.483 7.989-10.483 14.84 0 8.707 7.082 15.789 15.789 15.789 8.728 0 15.831-7.082 15.831-15.789.001-6.836-4.385-12.62-10.471-14.827zm-5.359 19.952c-2.828 0-5.124-2.299-5.124-5.124 0-2.846 2.297-5.161 5.124-5.161 2.849 0 5.166 2.315 5.166 5.161 0 2.825-2.317 5.124-5.166 5.124zm-43.363-148.14h21.376l7.957 25.884c.687 2.237 2.755 3.765 5.098 3.765h62.496c2.947 0 5.333-2.388 5.333-5.333s-2.385-5.333-5.333-5.333h-58.558l-7.957-25.884c-.687-2.237-2.755-3.765-5.098-3.765h-25.339c-2.214-6.086-8.002-10.47-14.843-10.47-8.717 0-15.81 7.111-15.81 15.849 0 8.717 7.093 15.808 15.81 15.808 6.871.001 12.676-4.41 14.868-10.521zm-20.013-5.286c0-2.859 2.307-5.184 5.145-5.184 2.859 0 5.182 2.325 5.182 5.184 0 2.836-2.323 5.143-5.182 5.143-2.838-.001-5.145-2.307-5.145-5.143zm26.022-101.918v48.28c0 2.934 2.378 5.333 5.333 5.333h.005l105.105-.055c2.942-.003 5.327-2.39 5.327-5.335s-2.39-5.33-5.333-5.33c0 0 0 0-.005 0l-99.767.052v-42.953c6.098-2.202 10.493-7.982 10.493-14.817 0-8.738-7.108-15.847-15.847-15.847-8.717 0-15.81 7.108-15.81 15.847.001 6.845 4.4 12.631 10.499 14.825zm5.312-20.007c2.859 0 5.182 2.325 5.182 5.182 0 2.83-2.31 5.127-5.158 5.141-.001 0-.002-.001-.003-.001-.008 0-.015.005-.023.005-2.837-.001-5.142-2.307-5.142-5.144-.001-2.858 2.306-5.183 5.144-5.183zm148.588 243.673c-2.948 0-5.333 2.388-5.333 5.333v74.336h-39.795c-2.208-6.082-7.99-10.465-14.827-10.465-8.707 0-15.789 7.101-15.789 15.826 0 8.707 7.082 15.789 15.789 15.789 6.854 0 12.646-4.393 14.841-10.485h45.114c2.947 0 5.333-2.388 5.333-5.333v-79.668c0-2.945-2.386-5.333-5.333-5.333zm-59.955 90.154c-2.828 0-5.124-2.299-5.124-5.124 0-2.846 2.297-5.161 5.124-5.161 2.843 0 5.161 2.315 5.161 5.161 0 2.825-2.318 5.124-5.161 5.124zm98.189 33.033v-104.148c0-2.945-2.385-5.333-5.333-5.333s-5.333 2.388-5.333 5.333v104.166c-5.582 2.166-9.566 7.569-9.566 13.919 0 8.231 6.692 14.925 14.92 14.925 8.249 0 14.961-6.694 14.961-14.925.001-6.371-4.023-11.785-9.649-13.937zm-5.312 18.196c-2.343 0-4.255-1.911-4.255-4.26 0-2.367 1.911-4.291 4.255-4.291 2.369 0 4.296 1.924 4.296 4.291.001 2.349-1.926 4.26-4.296 4.26zm65.621-12.963v-25.341c0-2.341-1.526-4.408-3.765-5.098l-25.882-7.96v-66.93c0-2.945-2.385-5.333-5.333-5.333s-5.333 2.388-5.333 5.333v70.87c0 2.341 1.526 4.408 3.765 5.098l25.882 7.96v21.376c-6.112 2.192-10.525 7.997-10.525 14.868 0 8.717 7.093 15.81 15.81 15.81 8.738 0 15.847-7.093 15.847-15.81.001-6.841-4.38-12.628-10.466-14.843zm-5.379 19.988c-2.838 0-5.145-2.307-5.145-5.145 0-2.856 2.307-5.182 5.145-5.182 2.859 0 5.182 2.325 5.182 5.182-.001 2.838-2.323 5.145-5.182 5.145zm97.486-47.18c-6.833 0-12.612 4.394-14.815 10.491h-23.7v-117.585c0-2.945-2.385-5.333-5.333-5.333-2.947 0-5.333 2.388-5.333 5.333v122.917c0 2.945 2.385 5.333 5.333 5.333h29.021c2.193 6.101 7.98 10.501 14.827 10.501 8.738 0 15.847-7.09 15.847-15.808-.001-8.738-7.109-15.849-15.847-15.849zm0 20.991c-2.829 0-5.125-2.294-5.14-5.117 0-.018.01-.034.01-.052 0-.009-.005-.017-.005-.026.03-2.834 2.315-5.132 5.135-5.132 2.859 0 5.182 2.325 5.182 5.184-.001 2.837-2.323 5.143-5.182 5.143zm-75.412-56.47-.005-50.496c0-2.945-2.39-5.333-5.333-5.333-2.947 0-5.333 2.388-5.333 5.333l.005 50.5c-5.598 2.161-9.597 7.573-9.597 13.936 0 8.233 6.697 14.93 14.93 14.93 8.254 0 14.967-6.697 14.967-14.93.001-6.368-4.015-11.783-9.634-13.94zm-5.332 18.205c-2.354 0-4.265-1.914-4.265-4.265 0-2.372 1.911-4.301 4.265-4.301 2.369 0 4.301 1.929 4.301 4.301.001 2.351-1.931 4.265-4.301 4.265zm-44.53-76.807c62.397 0 113.161-50.764 113.161-113.161 0-31.289-12.78-59.642-33.386-80.143v-59.834c0-43.988-35.787-79.775-79.775-79.775s-79.775 35.787-79.775 79.775v59.835c-20.605 20.5-33.386 48.854-33.386 80.143 0 62.397 50.764 113.16 113.161 113.16zm-69.11-253.138c0-38.106 31.001-69.11 69.11-69.11s69.11 31.003 69.11 69.11v50.597c-7.703-5.967-16.126-11.047-25.22-14.887v-35.71c0-24.2-19.69-43.887-43.89-43.887s-43.89 19.687-43.89 43.887v35.71c-9.094 3.841-17.517 8.92-25.22 14.887zm102.334 0v31.842c-21.625-6.654-44.781-6.668-66.449 0v-31.842c0-18.318 14.904-33.222 33.224-33.222s33.225 14.905 33.225 33.222zm-33.224 37.513c56.518 0 102.496 45.965 102.496 102.464 0 56.515-45.978 102.496-102.496 102.496s-102.496-45.98-102.496-102.496c0-56.499 45.978-102.464 102.496-102.464zm-18.466 115.335c1.51 1.135 2.38 2.752 2.38 4.437v9.035c0 8.868 7.218 16.084 16.086 16.084 8.869 0 16.086-7.215 16.086-16.084v-9.04c0-1.687.849-3.291 2.333-4.4 10.551-7.887 14.795-21.281 10.821-34.12-10.227-33.08-59.955-25.239-59.955 9.577.001 9.589 4.578 18.754 12.249 24.511zm18.456-44.587c9.33 0 16.647 5.847 19.065 13.649v.003c2.625 8.473-.135 17.276-7.02 22.426-4.203 3.143-6.614 7.861-6.614 12.941v9.04c0 2.987-2.432 5.418-5.421 5.418s-5.421-2.432-5.421-5.418v-9.035c0-5.072-2.422-9.798-6.64-12.967-5.005-3.755-7.988-9.728-7.988-15.982 0-11.218 8.985-20.075 20.039-20.075z" fill="url(#SVGID_1_)"/></g></svg>