<svg enable-background="new 0 0 512 512" height="512" viewBox="0 0 512 512" width="512" xmlns="http://www.w3.org/2000/svg" xmlns:xlink="http://www.w3.org/1999/xlink"><linearGradient id="SVGID_1_" gradientUnits="userSpaceOnUse" x1="75.874" x2="404.932" y1="375.397" y2="46.339"><stop offset="0" stop-color="#1d1d1d"/><stop offset="1" stop-color="#1d1d1d"/></linearGradient><g id="_x31_4_Idea"><path d="m406.127 209.465c-2.229 51.068-28.704 98.871-70.823 127.877-20.028 13.818-33.834 34.636-38.869 58.614-.604 2.885-3.437 4.723-6.312 4.122-2.885-.604-4.728-3.432-4.124-6.314 5.598-26.665 20.961-49.824 43.249-65.204 38.437-26.468 62.231-67.777 65.886-113.994h-305.207c3.583 45.556 26.835 86.485 64.381 112.958 23.044 16.248 38.895 39.76 44.639 66.204.625 2.88-1.203 5.718-4.083 6.343-2.849.624-5.715-1.183-6.343-4.078-5.171-23.827-19.508-45.048-40.359-59.752-41.791-29.467-67.022-75.674-69.23-126.779-.131-3.06 2.318-5.562 5.327-5.562h316.538c3.032.001 5.461 2.522 5.33 5.565zm-91.378 221.812c0 5.992-2.644 11.335-6.771 15.071 4.127 3.736 6.771 9.079 6.771 15.071 0 11.251-9.155 20.403-20.403 20.403h-22.87c1.597 2.907 2.587 6.193 2.587 9.738 0 11.251-9.155 20.403-20.409 20.403h-22.231c-11.248 0-20.403-9.152-20.403-20.403 0-3.545.99-6.831 2.587-9.738h-22.87c-11.248 0-20.403-9.152-20.403-20.403 0-5.992 2.644-11.335 6.771-15.071-4.127-3.736-6.771-9.079-6.771-15.071 0-11.251 9.155-20.406 20.403-20.406h103.61c11.247 0 20.402 9.155 20.402 20.406zm-51.352 60.283c0-5.369-4.369-9.738-9.743-9.738h-22.231c-5.369 0-9.738 4.369-9.738 9.738s4.369 9.738 9.738 9.738h22.231c5.374 0 9.743-4.369 9.743-9.738zm40.687-30.142c0-5.369-4.369-9.738-9.738-9.738h-103.61c-5.369 0-9.738 4.369-9.738 9.738s4.369 9.738 9.738 9.738h103.61c5.369.001 9.738-4.369 9.738-9.738zm0-30.141c0-5.372-4.369-9.741-9.738-9.741h-103.61c-5.369 0-9.738 4.369-9.738 9.741 0 5.369 4.369 9.738 9.738 9.738h103.61c5.369 0 9.738-4.369 9.738-9.738zm128.987-349.804c0 9.35-7.587 16.956-16.914 16.956-7.458 0-13.737-4.873-16-11.579h-66.39v101.04c0 2.945-2.385 5.333-5.333 5.333-2.947 0-5.333-2.388-5.333-5.333v-106.373c0-2.945 2.385-5.333 5.333-5.333h71.699c2.241-6.728 8.538-11.626 16.023-11.626 9.327.001 16.915 7.588 16.915 16.915zm-10.665 0c0-3.445-2.802-6.249-6.249-6.249-3.468 0-6.291 2.804-6.291 6.249 0 3.468 2.823 6.291 6.291 6.291 3.447 0 6.249-2.823 6.249-6.291zm-146.448-57.7c0-8.798 7.176-15.956 15.998-15.956 8.796 0 15.956 7.158 15.956 15.956 0 6.933-4.452 12.792-10.618 15.006v149.111c0 2.945-2.385 5.333-5.333 5.333s-5.333-2.388-5.333-5.333v-149.103c-6.196-2.207-10.67-8.071-10.67-15.014zm10.665 0c0 2.938 2.388 5.327 5.329 5.329.003 0 .006-.002.009-.002.001 0 .003.001.004.001 2.912-.005 5.282-2.392 5.282-5.328 0-2.916-2.375-5.291-5.291-5.291-2.943 0-5.333 2.375-5.333 5.291zm-78.369-6.799c0-9.34 7.613-16.938 16.977-16.938 9.342 0 16.94 7.598 16.94 16.938 0 7.498-4.905 13.802-11.644 16.046v24.513l29.037 8.97c2.234.69 3.76 2.757 3.76 5.096v116.291c0 2.945-2.385 5.333-5.333 5.333-2.947 0-5.333-2.388-5.333-5.333v-112.356l-29.037-8.97c-2.234-.69-3.76-2.757-3.76-5.096v-28.467c-6.721-2.261-11.607-8.551-11.607-16.027zm10.665 0c0 3.481 2.833 6.314 6.312 6.314 3.458 0 6.275-2.833 6.275-6.314 0-3.458-2.817-6.273-6.275-6.273-3.479.001-6.312 2.816-6.312 6.273zm-139.969 29.007c0-9.34 7.613-16.938 16.977-16.938 7.476 0 13.762 4.898 16.005 11.629h53.86c2.947 0 5.333 2.388 5.333 5.333v141.885c0 2.945-2.385 5.333-5.333 5.333s-5.333-2.388-5.333-5.333v-136.553h-48.538c-2.252 6.73-8.53 11.623-15.994 11.623-9.364 0-16.977-7.616-16.977-16.979zm10.665 0c0 3.481 2.833 6.314 6.312 6.314 3.431 0 6.217-2.794 6.26-6.238 0-.019-.011-.034-.011-.053 0-.027.015-.049.015-.076-.03-3.432-2.825-6.22-6.264-6.22-3.479 0-6.312 2.815-6.312 6.273zm101.069 41.41c0-8.803 7.181-15.966 16.003-15.966 8.806 0 15.966 7.163 15.966 15.966 0 6.941-4.457 12.805-10.634 15.017l.005 85.482c0 2.945-2.385 5.333-5.333 5.333-2.942 0-5.333-2.388-5.333-5.333l-.005-85.479c-6.194-2.209-10.669-8.074-10.669-15.02zm10.665 0c0 2.942 2.395 5.338 5.338 5.338 2.921 0 5.301-2.395 5.301-5.338 0-2.924-2.38-5.301-5.301-5.301-2.943 0-5.338 2.377-5.338 5.301z" fill="url(#SVGID_1_)"/></g></svg>