<svg id="Layer_1" enable-background="new 0 0 512 512" height="512" viewBox="0 0 512 512" width="512" xmlns="http://www.w3.org/2000/svg"><path clip-rule="evenodd" d="m287.441 152.354c7.22 0 13.099 5.879 13.099 13.099s-5.879 13.09-13.099 13.09-13.09-5.87-13.09-13.09 5.87-13.099 13.09-13.099zm0 38.192c13.842 0 25.098-11.251 25.098-25.093 0-13.838-11.255-25.098-25.098-25.098-13.833 0-25.088 11.26-25.088 25.098-.001 13.843 11.255 25.093 25.088 25.093zm111.058-4.919c-7.22 0-13.099-5.88-13.099-13.104 0-7.215 5.879-13.085 13.099-13.085s13.09 5.87 13.09 13.085c0 7.224-5.87 13.104-13.09 13.104zm0-38.193c-13.838 0-25.098 11.26-25.098 25.088 0 13.842 11.26 25.103 25.098 25.103 13.842 0 25.093-11.26 25.093-25.103 0-13.828-11.25-25.088-25.093-25.088zm-103.98 142.172c-7.22 0-13.099-5.879-13.099-13.104 0-7.215 5.879-13.085 13.099-13.085s13.09 5.87 13.09 13.085c0 7.225-5.87 13.104-13.09 13.104zm0-38.192c-13.838 0-25.098 11.26-25.098 25.089 0 13.842 11.26 25.102 25.098 25.102 13.833 0 25.089-11.26 25.089-25.102 0-13.829-11.256-25.089-25.089-25.089zm51.993-13.8c-7.22 0-13.104-5.879-13.104-13.099s5.884-13.09 13.104-13.09 13.09 5.87 13.09 13.09c-.001 7.22-5.87 13.099-13.09 13.099zm0-38.187c-13.842 0-25.102 11.26-25.102 25.088 0 13.838 11.26 25.103 25.102 25.103 13.838 0 25.088-11.265 25.088-25.103 0-13.828-11.251-25.088-25.088-25.088zm-7.079-99.061c7.23 0 13.099 5.879 13.099 13.099s-5.87 13.09-13.099 13.09c-7.224 0-13.094-5.87-13.094-13.09-.001-7.219 5.869-13.099 13.094-13.099zm0 38.188c13.838 0 25.098-11.251 25.098-25.088 0-13.842-11.26-25.103-25.098-25.103-13.833 0-25.093 11.26-25.093 25.103 0 13.837 11.26 25.088 25.093 25.088zm-103.98 91.981c-7.225 0-13.095-5.87-13.095-13.09s5.87-13.099 13.095-13.099c7.22 0 13.099 5.879 13.099 13.099s-5.879 13.09-13.099 13.09zm0-38.192c-13.833 0-25.093 11.26-25.093 25.103 0 13.838 11.26 25.088 25.093 25.088 13.838 0 25.098-11.251 25.098-25.088 0-13.843-11.26-25.103-25.098-25.103zm266.546-87.668c0 3.311-2.69 6.002-5.997 6.002-3.311 0-6.002-2.69-6.002-6.002 0-45.61-37.101-82.711-82.711-82.711-3.311 0-6.001-2.69-6.001-6.001 0-3.316 2.69-5.997 6.001-5.997 52.224 0 94.71 42.477 94.71 94.709zm-94.709-44.001c24.261 0 44.001 19.741 44.001 44.001 0 3.311 2.69 6.002 6.002 6.002 3.306 0 5.997-2.69 5.997-6.002 0-30.878-25.116-56-56-56-3.311 0-6.001 2.681-6.001 6.001-.001 3.307 2.69 5.998 6.001 5.998zm-225.25 292.81c-12.991 0-23.56-10.569-23.56-23.56 0-12.986 10.569-23.56 23.56-23.56s23.56 10.573 23.56 23.56c0 12.991-10.569 23.56-23.56 23.56zm0-59.118c-19.609 0-35.563 15.949-35.563 35.558s15.954 35.558 35.563 35.558 35.558-15.949 35.558-35.558c.001-19.608-15.949-35.558-35.558-35.558zm0 92.701c31.499 0 57.138-25.643 57.138-57.142 0-31.509-25.639-57.138-57.138-57.138-31.508 0-57.138 25.629-57.138 57.138 0 31.499 25.63 57.142 57.138 57.142zm0-126.284c-38.121 0-69.141 31.024-69.141 69.141 0 38.122 31.02 69.141 69.141 69.141 38.122 0 69.141-31.02 69.141-69.141 0-38.116-31.019-69.141-69.141-69.141zm271.781-61.239c13.621-13.617 13.621-35.77 0-49.387l-92.009-92.014c-6.81-6.811-15.752-10.221-24.703-10.221-8.941 0-17.887 3.41-24.689 10.221l-261.26 261.25c-38.992 38.992-38.992 102.423 0 141.41 38.978 38.983 102.418 38.983 141.401 0zm-83.533-149.89c-18.287-18.287-48.055-18.297-66.356 0l-261.26 261.26c-21.072 21.072-32.671 49.194-32.671 79.192 0 29.989 11.599 58.121 32.671 79.178 21.829 21.838 50.506 32.75 79.188 32.75s57.359-10.912 79.193-32.75l261.259-261.25c18.292-18.301 18.292-48.07 0-66.371z" fill="#1d1d1d" fill-rule="evenodd"/></svg>