<svg enable-background="new 0 0 512 512" height="512" viewBox="0 0 512 512" width="512" xmlns="http://www.w3.org/2000/svg" xmlns:xlink="http://www.w3.org/1999/xlink"><linearGradient id="SVGID_1_" gradientUnits="userSpaceOnUse" x1="18.67" x2="495.871" y1="493.332" y2="16.131"><stop offset="0" stop-color="#1d1d1d"/><stop offset="1" stop-color="#1d1d1d"/></linearGradient><g id="_x31_1_Tools"><path d="m26.608 155.145c-22.392-22.393-31.414-54.24-24.137-85.193.956-4.065 6.022-5.501 8.962-2.549l23.463 23.465c15.469 15.417 40.575 15.443 55.971.052 15.467-15.469 15.443-40.578 0-56.023l-23.465-23.463c-2.952-2.952-1.511-8.008 2.549-8.962 30.951-7.28 62.801 1.745 85.193 24.137 24.788 24.788 33.068 61.452 21.567 94.299l75.007 75.01c2.083 2.083 2.083 5.458 0 7.541s-5.458 2.083-7.541 0l-77.429-77.429c-1.502-1.5-1.968-3.749-1.19-5.726 11.712-29.717 4.663-63.535-17.956-86.154-17.399-17.401-41.273-25.663-65.392-22.989l16.196 16.196c19.601 19.604 19.625 51.477.052 71.052-19.596 19.591-51.472 19.575-71.099.005l-16.199-16.201c-2.664 24.116 5.588 47.991 22.989 65.392 22.624 22.619 56.44 29.665 86.154 17.956 1.979-.779 4.221-.318 5.726 1.19l77.429 77.429c2.083 2.083 2.083 5.458 0 7.541s-5.458 2.083-7.541 0l-75.01-75.007c-32.854 11.491-69.508 3.222-94.299-21.569zm458.784 201.711c-24.791-24.791-61.457-33.068-94.299-21.567l-75.01-75.007c-2.083-2.083-5.458-2.083-7.541 0s-2.083 5.458 0 7.541l77.429 77.429c1.5 1.505 3.749 1.968 5.726 1.19 29.725-11.707 63.538-4.661 86.154 17.956 17.401 17.401 25.653 41.275 22.989 65.392l-16.201-16.201c-19.633-19.575-51.508-19.591-71.099.005-19.544 19.547-19.523 51.417.052 71.052l16.196 16.196c-24.124 2.653-47.993-5.588-65.392-22.989-22.619-22.619-29.668-56.437-17.956-86.154.779-1.976.312-4.226-1.19-5.726l-77.429-77.429c-2.083-2.083-5.458-2.083-7.541 0s-2.083 5.458 0 7.541l75.007 75.01c-11.501 32.847-3.221 69.511 21.567 94.299 17.29 17.287 40.212 26.606 64.01 26.606 7.025 0 14.131-.812 21.184-2.471 4.06-.955 5.501-6.011 2.549-8.962l-23.46-23.458c-15.422-15.472-15.448-40.583-.005-56.028 15.396-15.391 40.502-15.365 55.971.052l23.463 23.465c2.908 2.914 7.997 1.555 8.962-2.549 7.278-30.954-1.744-62.801-24.136-85.193zm-250.048-38.424c6.765 21.834 1.553 46.613-15.703 63.868l-111.042 111.039c-24.85 24.855-65.078 24.849-89.922 0-24.793-24.791-24.793-65.131 0-89.922l111.041-111.039c17.252-17.256 41.919-22.587 63.923-15.742l200.024-200.021 8.431-31.543c.365-1.359 1.25-2.518 2.463-3.226l59.666-34.854c8.358-4.887 18.989-3.52 25.84 3.333l11.592 11.592c6.851 6.851 8.223 17.477 3.338 25.843-.003 0-.003 0-.003 0l-34.857 59.663c-.706 1.211-1.862 2.093-3.216 2.461l-31.514 8.486zm169.034-240.588 29.811 29.808 27.845-7.499 33.753-57.773c2.442-4.184 1.755-9.496-1.669-12.923l-11.592-11.592c-3.427-3.421-8.73-4.111-12.92-1.666l-57.77 33.748zm-192.278 222.075c-20.685-20.685-54.16-20.681-74.841 0l-111.041 111.038c-19.36 19.362-20.55 50.112-3.579 70.879l128.176-128.173c2.083-2.083 5.458-2.083 7.541 0s2.083 5.458 0 7.541l-128.179 128.175c20.543 16.827 51.264 16.036 70.881-3.581l111.042-111.039c20.633-20.635 20.633-54.205 0-74.84zm18.859 7.816 194.11-194.11-26.665-26.668-194.103 194.101c11.401 6.018 20.721 15.375 26.658 26.677z" fill="url(#SVGID_1_)"/></g></svg>