<svg enable-background="new 0 0 512 512" height="512" viewBox="0 0 512 512" width="512" xmlns="http://www.w3.org/2000/svg" xmlns:xlink="http://www.w3.org/1999/xlink"><linearGradient id="SVGID_1_" gradientUnits="userSpaceOnUse" x1="71.869" x2="440.131" y1="444.819" y2="76.557"><stop offset="0" stop-color="#1d1d1d"/><stop offset="1" stop-color="#1d1d1d"/></linearGradient><g id="_x34_0_Battery"><path d="m382.753 236.589h33.198c2.175 5.773 7.722 9.913 14.259 9.913 8.4 0 15.237-6.835 15.237-15.237 0-8.423-6.838-15.274-15.237-15.274-6.536 0-12.083 4.148-14.258 9.933h-33.199c-2.948 0-5.333 2.388-5.333 5.333s2.385 5.332 5.333 5.332zm47.456-9.934c2.52 0 4.572 2.067 4.572 4.609 0 2.52-2.052 4.572-4.572 4.572-2.541 0-4.609-2.052-4.609-4.572.001-2.541 2.068-4.609 4.609-4.609zm-47.456-28.142h86.019c2.948 0 5.333-2.388 5.333-5.333v-49.94c6.285-2.21 10.832-8.144 10.832-15.176 0-8.923-7.244-16.183-16.144-16.183-8.926 0-16.185 7.259-16.185 16.183 0 7.022 4.544 12.95 10.832 15.167v44.616h-80.686c-2.948 0-5.333 2.388-5.333 5.333s2.384 5.333 5.332 5.333zm80.519-70.448c0-3.041 2.479-5.517 5.52-5.517 3.02 0 5.478 2.476 5.478 5.517 0 3.017-2.45 5.469-5.463 5.478-.013 0-.023-.007-.036-.007-.006 0-.01.003-.015.003-3.024-.021-5.484-2.463-5.484-5.474zm-22.283 283.166v-66.551c0-2.945-2.385-5.333-5.333-5.333h-52.904c-2.948 0-5.333 2.388-5.333 5.333s2.385 5.333 5.333 5.333h47.571v61.256c-6.253 2.234-10.764 8.155-10.764 15.165 0 8.892 7.249 16.125 16.164 16.125 8.889 0 16.123-7.233 16.123-16.125.001-7.055-4.559-13.003-10.857-15.203zm-5.265 20.663c-3.031 0-5.499-2.45-5.499-5.46 0-3.031 2.468-5.497 5.499-5.497 3.01 0 5.458 2.466 5.458 5.497 0 3.01-2.448 5.46-5.458 5.46zm53.758-136.449c-6.534 0-12.077 4.148-14.25 9.933h-92.48c-2.948 0-5.333 2.388-5.333 5.333s2.385 5.333 5.333 5.333h92.484c2.176 5.765 7.717 9.897 14.246 9.897 8.4 0 15.232-6.832 15.232-15.23 0-8.418-6.832-15.266-15.232-15.266zm0 19.83c-2.536 0-4.598-2.047-4.598-4.564 0-2.536 2.062-4.601 4.598-4.601 2.52 0 4.567 2.065 4.567 4.601 0 2.518-2.046 4.564-4.567 4.564zm6.338-82.915c-7.044 0-12.987 4.548-15.207 10.84h-26.24c-2.338 0-4.406 1.523-5.093 3.757l-8.28 26.801h-58.247c-2.948 0-5.333 2.388-5.333 5.333s2.385 5.333 5.333 5.333h62.179c2.338 0 4.406-1.523 5.093-3.757l8.28-26.801h22.306c2.217 6.281 8.163 10.824 15.209 10.824 8.9 0 16.143-7.244 16.143-16.146 0-8.924-7.244-16.184-16.143-16.184zm0 21.664c-3.029 0-5.494-2.441-5.513-5.448 0-.016.009-.028.009-.044 0-.012-.007-.022-.007-.034.025-3.02 2.486-5.473 5.511-5.473 3.02 0 5.478 2.476 5.478 5.517 0 3.024-2.458 5.482-5.478 5.482zm-366.573 85.323h-52.903c-2.947 0-5.333 2.388-5.333 5.333v66.551c-6.298 2.2-10.858 8.148-10.858 15.203 0 8.892 7.233 16.125 16.123 16.125 8.915 0 16.164-7.233 16.164-16.125 0-7.01-4.511-12.932-10.764-15.165v-61.256h47.571c2.947 0 5.333-2.388 5.333-5.333s-2.385-5.333-5.333-5.333zm-47.472 87.087c0 3.01-2.468 5.46-5.499 5.46-3.01 0-5.458-2.45-5.458-5.46 0-3.031 2.448-5.497 5.458-5.497 3.031 0 5.499 2.466 5.499 5.497zm47.472-121.056h-92.48c-2.173-5.785-7.716-9.933-14.25-9.933-8.4 0-15.232 6.848-15.232 15.266 0 8.397 6.832 15.23 15.232 15.23 6.529 0 12.07-4.132 14.246-9.897h92.483c2.947 0 5.333-2.388 5.333-5.333s-2.384-5.333-5.332-5.333zm-106.729 9.897c-2.52 0-4.567-2.047-4.567-4.564 0-2.536 2.047-4.601 4.567-4.601 2.536 0 4.598 2.065 4.598 4.601 0 2.518-2.062 4.564-4.598 4.564zm106.729-89.351h-33.198c-2.175-5.786-7.722-9.933-14.258-9.933-8.4 0-15.237 6.851-15.237 15.274 0 8.402 6.838 15.237 15.237 15.237 6.537 0 12.084-4.139 14.259-9.913h33.198c2.947 0 5.333-2.388 5.333-5.333s-2.386-5.332-5.334-5.332zm-47.456 9.912c-2.52 0-4.572-2.052-4.572-4.572 0-2.541 2.052-4.609 4.572-4.609 2.541 0 4.609 2.067 4.609 4.609-.001 2.52-2.068 4.572-4.609 4.572zm47.456 37.922h-58.246l-8.28-26.801c-.687-2.234-2.755-3.757-5.093-3.757h-26.24c-2.22-6.291-8.164-10.84-15.207-10.84-8.9 0-16.144 7.259-16.144 16.183 0 8.902 7.244 16.146 16.144 16.146 7.047 0 12.992-4.543 15.21-10.824h22.306l8.28 26.801c.687 2.234 2.755 3.757 5.093 3.757h62.179c2.947 0 5.333-2.388 5.333-5.333s-2.387-5.332-5.335-5.332zm-113.067-19.734c-3.02 0-5.478-2.458-5.478-5.481 0-3.041 2.458-5.517 5.478-5.517 3.026 0 5.486 2.454 5.511 5.473 0 .012-.007.022-.007.034 0 .016.009.028.009.044-.019 3.006-2.484 5.447-5.513 5.447zm113.067-66.176h-80.686v-44.616c6.288-2.217 10.832-8.145 10.832-15.167 0-8.923-7.259-16.183-16.185-16.183-8.9 0-16.144 7.259-16.144 16.183 0 7.032 4.547 12.966 10.832 15.176v49.94c0 2.945 2.385 5.333 5.333 5.333h86.019c2.947 0 5.333-2.388 5.333-5.333s-2.386-5.333-5.334-5.333zm-86.003-54.309c-.006 0-.01-.003-.016-.003-.013 0-.023.007-.036.007-3.012-.008-5.463-2.461-5.463-5.478 0-3.041 2.458-5.517 5.478-5.517 3.041 0 5.52 2.476 5.52 5.517.001 3.011-2.46 5.453-5.483 5.474zm298.311-39.482h-6.421v-14.727h2.307c7.645 0 13.863-6.215 13.863-13.857s-6.218-13.857-13.863-13.857h-46.92c-7.64 0-13.857 6.215-13.857 13.857s6.218 13.857 13.857 13.857h2.328v14.727h-75.192v-10.454c0-10.481-8.491-18.984-18.982-18.984-10.467 0-18.982 8.517-18.982 18.984v10.454h-9.249c-13.899 0-25.21 11.306-25.21 25.205v315.916c0 13.899 11.311 25.207 25.21 25.207h171.111c13.899 0 25.21-11.308 25.21-25.207v-315.916c0-13.899-11.311-25.205-25.21-25.205zm-51.034-25.392c-1.76 0-3.192-1.432-3.192-3.192s1.432-3.192 3.192-3.192h46.92c1.765 0 3.197 1.432 3.197 3.192s-1.432 3.192-3.197 3.192zm33.948 10.673v14.719h-20.955v-14.719zm-134.111 4.265c0-4.588 3.729-8.319 8.317-8.319 4.594 0 8.317 3.723 8.317 8.319v10.454h-16.633v-10.454zm165.742 351.574c0 8.02-6.525 14.542-14.545 14.542h-171.11c-8.02 0-14.545-6.522-14.545-14.542v-315.915c0-8.017 6.525-14.54 14.545-14.54h171.111c8.02 0 14.545 6.522 14.545 14.54v315.915zm-12.113-225.465c0 2.945-2.385 5.333-5.333 5.333h-165.31c-2.947 0-5.333-2.388-5.333-5.333s2.385-5.333 5.333-5.333h165.31c2.948.001 5.333 2.388 5.333 5.333z" fill="url(#SVGID_1_)"/></g></svg>