<svg height="479pt" viewBox="0 -20 479.77028 479" width="479pt" xmlns="http://www.w3.org/2000/svg" xmlns:xlink="http://www.w3.org/1999/xlink"><linearGradient id="a" gradientUnits="userSpaceOnUse" x1="141.341265" x2="424.189265" y1="288.806405" y2="5.966405"><stop offset="0" stop-color="#1d1d1d"/><stop offset="1" stop-color="#1d1d1d"/></linearGradient><path d="m449.070312 30.847656c-40.644531-40.546875-106.4375-40.546875-147.082031 0l-62.222656 62.230469-62.222656-62.230469c-40.617188-40.617187-106.464844-40.617187-147.082031 0-40.613282 40.613282-40.613282 106.464844 0 147.078125l203.648437 203.648438c3.125 3.125 8.1875 3.125 11.3125 0l203.648437-203.648438c40.542969-40.644531 40.542969-106.433593 0-147.078125zm-209.304687 333.757813-197.992187-197.992188c-34.367188-34.367187-34.367188-90.085937 0-124.453125 34.367187-34.371094 90.089843-34.371094 124.457031 0l67.878906 67.886719c3.125 3.121094 8.1875 3.121094 11.3125 0l67.878906-67.886719c34.367188-34.371094 90.089844-34.371094 124.457031 0 34.367188 34.367188 34.367188 90.085938 0 124.453125zm235.757813-61.75c-18.28125-9.714844-33.378907-24.488281-43.496094-42.554688l-1.285156-2.292969c-1.535157-2.363281-4.160157-3.789062-6.976563-3.789062s-5.441406 1.425781-6.976563 3.789062l-1.289062 2.292969c-10.113281 18.066407-25.210938 32.839844-43.496094 42.554688-2.609375 1.386719-4.242187 4.105469-4.242187 7.0625s1.632812 5.675781 4.242187 7.0625c18.285156 9.714843 33.382813 24.488281 43.496094 42.554687l1.289062 2.296875c1.417969 2.519531 4.082032 4.082031 6.976563 4.082031 2.890625 0 5.558594-1.5625 6.976563-4.082031l1.285156-2.296875c10.117187-18.066406 25.214844-32.839844 43.496094-42.554687 2.613281-1.386719 4.246093-4.105469 4.246093-7.0625s-1.632812-5.675781-4.246093-7.0625zm-51.757813 39.664062c-8.71875-12.808593-19.761719-23.867187-32.558594-32.601562 12.796875-8.730469 23.84375-19.789063 32.558594-32.597657 8.71875 12.804688 19.761719 23.863282 32.558594 32.597657-12.796875 8.734375-23.84375 19.789062-32.558594 32.601562zm-28.242187 46.335938c-13.367188-7.101563-24.410157-17.902344-31.804688-31.113281l-.96875-1.726563c-1.539062-2.363281-4.167969-3.785156-6.984375-3.785156-2.820313 0-5.445313 1.421875-6.984375 3.785156l-.960938 1.71875c-7.398437 13.210937-18.441406 24.015625-31.816406 31.121094-2.609375 1.386719-4.242187 4.105469-4.242187 7.0625s1.632812 5.675781 4.242187 7.0625c13.371094 7.105469 24.414063 17.90625 31.808594 31.113281l.96875 1.730469c1.414062 2.527343 4.085938 4.097656 6.984375 4.097656s5.570313-1.570313 6.984375-4.097656l.960938-1.722657c7.398437-13.210937 18.441406-24.015624 31.8125-31.121093 2.613281-1.386719 4.246093-4.105469 4.246093-7.0625s-1.632812-5.675781-4.246093-7.0625zm-39.757813 28c-5.84375-8.035157-12.914063-15.101563-20.953125-20.9375 8.042969-5.847657 15.113281-12.921875 20.953125-20.96875 5.839844 8.046875 12.910156 15.121093 20.953125 20.96875-8.042969 5.847656-15.113281 12.921875-20.953125 20.96875zm-148-256.9375c0-13.253907-10.746094-24-24-24s-24 10.746093-24 24c0 13.253906 10.746094 24 24 24s24-10.746094 24-24zm-24 8c-4.417969 0-8-3.582031-8-8s3.582031-8 8-8 8 3.582031 8 8-3.582031 8-8 8zm112-32c-13.253906 0-24 10.746093-24 24 0 13.253906 10.746094 24 24 24s24-10.746094 24-24c0-13.253907-10.746094-24-24-24zm0 32c-4.417969 0-8-3.582031-8-8s3.582031-8 8-8 8 3.582031 8 8-3.582031 8-8 8zm-1.34375 43.558593c2.453125 3.675782 1.460937 8.644532-2.214844 11.097657-31.738281 21.226562-73.144531 21.226562-104.882812 0-3.675781-2.453125-4.667969-7.417969-2.214844-11.097657 2.453125-3.675781 7.417969-4.667968 11.097656-2.214843 26.359375 17.640625 60.757813 17.640625 87.117188 0 3.675781-2.453125 8.644531-1.460938 11.097656 2.214843zm0 0" fill="url(#a)"/></svg>