<svg enable-background="new 0 0 512 512" height="512" viewBox="0 0 512 512" width="512" xmlns="http://www.w3.org/2000/svg" xmlns:xlink="http://www.w3.org/1999/xlink"><linearGradient id="SVGID_1_" gradientUnits="userSpaceOnUse" x1="92.76" x2="427.91" y1="418.935" y2="83.785"><stop offset="0" stop-color="#1d1d1d"/><stop offset="1" stop-color="#1d1d1d"/></linearGradient><g id="_x31_7_Setting"><path d="m341.68 342.227v103.613c0 .372-.039.747-.117 1.112l-12.956 60.791c-.523 2.461-2.698 4.221-5.215 4.221h-50.232c-9.983 0-18.768-7.082-20.888-16.839l-9.548-44.889c-18.849-4.718-36.838-12.157-53.568-22.148l-38.409 24.944c-8.415 5.437-19.651 4.244-26.725-2.836l-26.449-26.449c-7.051-7.051-8.223-18.266-2.786-26.665l24.903-38.471c-9.96-16.74-17.399-34.711-22.148-53.516l-44.827-9.59c-9.759-2.052-16.854-10.819-16.854-20.841v-37.328c0-10.022 7.095-18.789 16.873-20.843l44.809-9.587c4.749-18.805 12.188-36.776 22.148-53.516l-24.903-38.471c-5.437-8.4-4.265-19.614 2.786-26.665l26.449-26.449c7.077-7.08 18.312-8.277 26.72-2.838l38.414 24.947c16.729-9.991 34.719-17.43 53.568-22.148l9.543-44.866c2.125-9.78 10.91-16.862 20.893-16.862h50.232c2.518 0 4.692 1.76 5.215 4.221l12.956 60.791c.078.365.117.739.117 1.112v87.667c0 2.945-2.388 5.333-5.333 5.333s-5.333-2.388-5.333-5.333v-87.106l-11.941-56.021h-45.915c-5.002 0-9.405 3.549-10.467 8.439l-10.236 48.128c-.43 2.026-1.992 3.617-4.01 4.085-20.018 4.648-39.052 12.516-56.57 23.387-1.752 1.094-3.979 1.07-5.715-.057l-41.221-26.77c-4.205-2.721-9.827-2.119-13.378 1.429l-26.449 26.449c-3.575 3.575-4.14 9.056-1.375 13.329l26.718 41.275c1.12 1.729 1.143 3.947.06 5.7-10.834 17.544-18.706 36.568-23.395 56.541-.471 2.008-2.06 3.565-4.078 3.997l-48.1 10.29c-4.885 1.026-8.418 5.403-8.418 10.41v37.328c0 5.007 3.533 9.384 8.4 10.407l48.118 10.293c2.018.432 3.606 1.989 4.078 3.997 4.689 19.974 12.561 38.997 23.395 56.541 1.083 1.752 1.06 3.971-.06 5.7l-26.718 41.275c-2.765 4.273-2.2 9.754 1.375 13.329l26.449 26.449c3.552 3.552 9.184 4.148 13.383 1.427l41.215-26.767c1.729-1.125 3.96-1.148 5.715-.057 17.518 10.871 36.552 18.74 56.57 23.387 2.018.469 3.58 2.06 4.01 4.085l10.241 48.152c1.057 4.866 5.46 8.415 10.462 8.415h45.915l11.941-56.021v-103.05c0-2.945 2.388-5.333 5.333-5.333 2.946.004 5.333 2.391 5.333 5.336zm-32.852-79.119v19.771h131.632c2.152-5.575 7.533-9.559 13.858-9.559 8.189 0 14.852 6.679 14.852 14.886 0 8.189-6.663 14.852-14.852 14.852-6.316 0-11.693-3.963-13.851-9.514h-131.639v22.018h93.747c2.945 0 5.333 2.388 5.333 5.333v63.837c6.054 2.189 10.418 7.949 10.418 14.763 0 8.663-7.046 15.711-15.709 15.711-8.684 0-15.748-7.048-15.748-15.711 0-6.788 4.341-12.534 10.374-14.742v-58.526h-88.414v15.391c0 25.377-20.645 46.022-46.022 46.022-21.369 0-40.021-14.837-44.819-35.55-23.036.121-41.401-19.356-40.411-41.916-26.342-3.645-47.1-26.111-47.1-54.174 0-27.671 20.268-50.456 47.1-54.177-.966-21.993 16.789-41.913 40.301-41.913h.109c4.73-20.328 23.098-35.552 44.819-35.552 25.189 0 45.692 20.348 45.994 45.47h120.266v-42.532c-6.054-2.198-10.415-7.943-10.415-14.736 0-8.694 7.075-15.769 15.769-15.769 8.676 0 15.732 7.075 15.732 15.769 0 6.803-4.364 12.555-10.42 14.745v47.855c0 2.945-2.388 5.333-5.333 5.333h-125.57v25.983l74.623-.005c2.154-5.578 7.536-9.561 13.864-9.561 8.192 0 14.857 6.681 14.857 14.894 0 8.194-6.666 14.86-14.857 14.86-6.324 0-11.703-3.968-13.86-9.527l-74.627.005v35.303h98.702l7.916-25.627c.69-2.237 2.757-3.76 5.096-3.76h25.103c2.207-6.048 7.964-10.402 14.766-10.402 8.673 0 15.73 7.072 15.73 15.766 0 8.676-7.056 15.732-15.73 15.732-6.821 0-12.589-4.369-14.782-10.431h-21.153l-7.916 25.627c-.69 2.237-2.757 3.76-5.096 3.76h-102.637zm146.479-34.687c0 2.794 2.289 5.067 5.103 5.067 2.791 0 5.064-2.273 5.064-5.067 0-2.812-2.273-5.101-5.064-5.101-2.814 0-5.103 2.289-5.103 5.101zm-62.22-16.618c0 2.312 1.898 4.195 4.229 4.195 2.312 0 4.192-1.883 4.192-4.195 0-2.33-1.88-4.229-4.192-4.229-2.331.001-4.229 1.899-4.229 4.229zm36.229-99.243c0 2.77 2.254 5.015 5.035 5.053.017 0 .031-.01.048-.01.024 0 .044.013.068.014 2.77-.027 5.019-2.28 5.019-5.057 0-2.815-2.273-5.103-5.067-5.103-2.814-.001-5.103 2.288-5.103 5.103zm-131.153 57.822c0-19.497-15.862-35.359-35.357-35.359-17.527 0-32.457 12.891-34.962 30.299-1.532 10.662 1.754 21.889 9.939 30.075 2.083 2.083 2.083 5.458 0 7.541s-5.458 2.083-7.541 0c-8.913-8.913-13.389-20.601-13.45-32.308-25.713.936-38.228 32.266-19.884 50.61 2.083 2.083 2.083 5.458 0 7.541s-5.458 2.083-7.541 0c-4.756-4.756-8.05-10.421-9.93-16.436-21.789 2.838-38.298 21.256-38.298 43.656 0 29.751 28.727 50.57 56.752 42.244 2.833-.844 5.793.768 6.632 3.591.838 2.823-.768 5.793-3.591 6.632-4.181 1.243-8.429 1.836-12.668 2.07-.789 16.236 12.051 30.222 28.505 30.832.069-12.201 4.838-23.663 13.471-32.294 2.083-2.083 5.458-2.083 7.541 0s2.083 5.46 0 7.541c-6.674 6.674-10.353 15.55-10.358 24.994-.005 19.301 15.696 35.365 35.38 35.365 19.495 0 35.357-15.862 35.357-35.357v-171.237zm99.371 229.113c0 2.783 2.281 5.046 5.083 5.046 2.781 0 5.044-2.263 5.044-5.046 0-2.802-2.263-5.083-5.044-5.083-2.802 0-5.083 2.281-5.083 5.083zm52.564-111.293c0 .003.002.006.002.009 0 .001-.001.003-.001.004.005 2.305 1.894 4.178 4.219 4.178 2.31 0 4.187-1.877 4.187-4.187 0-2.328-1.877-4.221-4.187-4.221-2.327.001-4.218 1.892-4.22 4.217z" fill="url(#SVGID_1_)"/></g></svg>