<svg enable-background="new 0 0 512 512" height="512" viewBox="0 0 512 512" width="512" xmlns="http://www.w3.org/2000/svg" xmlns:xlink="http://www.w3.org/1999/xlink"><linearGradient id="SVGID_1_" gradientUnits="userSpaceOnUse" x1="126.54" x2="427.651" y1="432.873" y2="131.761"><stop offset="0" stop-color="#1d1d1d"/><stop offset="1" stop-color="#1d1d1d"/></linearGradient><g id="_x32_4_Hand"><path d="m184.458 221.461c2.083 2.083 2.083 5.458 0 7.541s-5.458 2.083-7.541 0l-30.022-30.022c-10.254-10.319-10.254-27.087-.01-37.393 10.214-10.355 27.198-10.361 37.437.013 2.057 2.086 2.13 5.52.057 7.595-2.067 2.07-5.338 2.177-7.431.112-6.291-6.364-16.633-6.15-22.486-.214-6.135 6.171-6.135 16.196-.016 22.359zm188.338-5.621v.013c0-.004 0-.009 0-.013zm-.001-.193v.446 1.033c0 42.58-30.881 61.933-36.719 69.622v15.006c0 2.945-2.385 5.333-5.333 5.333s-5.333-2.388-5.333-5.333v-11.868h-81.32v11.868c0 2.945-2.385 5.333-5.333 5.333s-5.333-2.388-5.333-5.333v-15.003l-35.162-35.162c-1-1-1.562-2.356-1.562-3.77 0-.575.005-188.788.005-190.759 0-21.167 24.118-33.589 41.353-20.892v-10.122c0-14.342 11.665-26.009 26.007-26.009 14.274 0 25.882 11.562 25.992 25.81 17.278-12.755 41.368-.241 41.368 20.873v20.063c17.227-12.692 41.353-.302 41.353 20.89.011 92.954.014 120.39.015 127.365 0-.026 0 .062 0 .294v.509c.003-.067.002-.132.002-.194zm-41.368-72.529h30.688v-55.445c0-8.46-6.884-15.344-15.342-15.344-8.462 0-15.347 6.884-15.347 15.344v55.445zm-41.349 0h30.683c0-56.331 0-60.599 0-96.398 0-8.46-6.884-15.342-15.342-15.342s-15.342 6.882-15.342 15.342v96.398zm-41.353 0h30.688c0-43.977 0-74.702 0-117.072 0-8.46-6.884-15.344-15.347-15.344-8.457 0-15.342 6.884-15.342 15.344.001 27.784.001 89.375.001 117.072zm-41.353 0h30.688v-86.058c0-8.46-6.884-15.344-15.342-15.344-8.462 0-15.347 6.884-15.347 15.344v86.058zm118.029 102.769c0-22.413-18.237-40.648-40.65-40.648s-40.65 18.234-40.65 40.648v33.334h81.301v-33.334zm36.73-92.091c-50.014 0-108.509 0-154.764 0v91.815l26.069 26.069v-25.793c0-28.293 23.018-51.313 51.316-51.313s51.316 23.02 51.316 51.313v25.8c2.197-3.048 26.064-20.139 26.064-54.561v-63.33zm4.863 187.673v165.161c0 2.945-2.385 5.333-5.333 5.333h-153.821c-2.947 0-5.333-2.388-5.333-5.333v-165.161c0-13.068 10.634-23.702 23.7-23.702h117.087c13.067 0 23.7 10.634 23.7 23.702zm-10.665 0c0-7.189-5.848-13.037-13.035-13.037h-117.087c-7.186 0-13.035 5.848-13.035 13.037v159.829h143.156v-159.829zm-35.359 73.396c0 19.955-16.232 36.19-36.188 36.19-19.992 0-36.255-16.235-36.255-36.19s16.263-36.19 36.255-36.19c19.956 0 36.188 16.235 36.188 36.19zm-10.665 0c0-14.073-11.451-25.525-25.522-25.525-14.113 0-25.59 11.451-25.59 25.525s11.478 25.525 25.59 25.525c14.07 0 25.522-11.451 25.522-25.525z" fill="url(#SVGID_1_)"/></g></svg>