<svg enable-background="new 0 0 512 512" height="512" viewBox="0 0 512 512" width="512" xmlns="http://www.w3.org/2000/svg" xmlns:xlink="http://www.w3.org/1999/xlink"><linearGradient id="SVGID_1_" gradientUnits="userSpaceOnUse" x1="65.323" x2="441.452" y1="516.495" y2="140.366"><stop offset="0" stop-color="#1d1d1d"/><stop offset="1" stop-color="#1d1d1d"/></linearGradient><g id="_x30_5_Humanoid"><path d="m147.306 219.668c2.186 59.722 51.337 104.861 108.75 104.861 58.894 0 106.898-47.052 108.671-105.526h10.906c8.671 0 15.727-7.056 15.727-15.727v-32.227c0-8.671-7.056-15.724-15.727-15.724h-10.738v-.253c0-57.246-.021-48.738-.13-50.006-1.356-38.996-23.394-73.978-57.393-92.184-15.54-8.347-33.15-12.774-50.992-12.836-.533-.038-1.649.073-2.256.303l-70.438 26.538c-28.928 10.887-48.785 37.196-50.586 67.043-1.526 26.332 8.022 49.911 12.48 59.351-4.148.078-9.538 1.507-16.287 5.765-18.557 11.721-2.925 52.325 18.013 60.622zm217.599-53.678h10.728c2.791 0 5.062 2.271 5.062 5.059v32.227c0 2.791-2.271 5.062-5.062 5.062h-10.728zm-103.569-155.147c13.778.742 27.266 4.451 39.448 10.714l4.202 40.654c2.8 26.968-16.73 51.09-43.65 54.035 0-26.677 0-78.679 0-105.403zm0 241.424h35.974c3.666 0 6.65 2.984 6.65 6.65s-2.984 6.65-6.65 6.65h-35.974zm0 23.965h35.974c9.546 0 17.315-7.767 17.315-17.315s-7.77-17.315-17.315-17.315h-35.974v-114.676c33.736-3.032 57.67-32.988 54.258-65.814l-3.378-32.718c23.789 16.589 39.021 42.806 41.583 71.778h-16.531c-2.948 0-5.333 2.388-5.333 5.333s2.385 5.333 5.333 5.333h16.961v13.675h-31.688c-2.948 0-5.333 2.388-5.333 5.333s2.385 5.333 5.333 5.333h31.688v80.507c0 .081-.011.159-.012.24-.117 50.509-39.735 94.783-92.881 97.669zm-10.665-22.722c-15.646.367-27.274-4.945-35.349-16.275-1.703-2.39-5.031-2.958-7.436-1.247-2.401 1.711-2.958 5.041-1.25 7.439 10.714 15.025 25.879 21.106 44.035 20.752v49.418c-53.048-2.827-92.893-47.055-92.893-97.906v-57.932c8.171-6.292 14.739-14.2 18.19-23.747 3.846-10.709 14.4-18.561 26.98-20.223 3.928-.516 33.302-3.7 47.722-5.3.001 44.995.001 103.67.001 145.021zm-106.927-158.947c1.552-25.642 18.7-48.287 43.702-57.695l63.225-23.823v84.714c-14.805 1.635-44.351 4.865-48.433 5.349-16.786 1.961-31.029 12.626-36.32 27.268-2.445 6.772-6.391 11.741-11.592 16.338-4.271-9.619-11.858-30.11-10.582-52.151zm-8.754 73.499c6.44-4.062 10.204-4.306 12.113-3.966v43.289c-12.287-9.098-20.354-34.117-12.113-39.323zm58.7 16.73c5.801-5.806 15.258-5.806 21.059 0 2.083 2.083 2.083 5.458 0 7.541s-5.458 2.083-7.541 0c-1.594-1.594-4.385-1.594-5.978 0-2.083 2.083-5.458 2.083-7.541 0-2.082-2.084-2.082-5.458.001-7.541zm114.098-17.714c-11.056 0-20.054 8.999-20.054 20.057 0 11.092 8.999 20.114 20.054 20.114 11.061 0 20.06-9.022 20.06-20.114 0-11.058-8.999-20.057-20.06-20.057zm0 29.506c-5.176 0-9.389-4.239-9.389-9.449 0-5.179 4.213-9.392 9.389-9.392 5.182 0 9.394 4.213 9.394 9.392 0 5.21-4.212 9.449-9.394 9.449zm27.564 252.506v36.208c0 2.945-2.385 5.333-5.333 5.333s-5.333-2.388-5.333-5.333v-36.208c0-6.148-4.999-11.147-11.144-11.147h-36.208c-2.947 0-5.333-2.388-5.333-5.333s2.385-5.333 5.333-5.333h36.208c12.025.001 21.81 9.786 21.81 21.813zm-32.954 32.953v3.255c0 2.945-2.385 5.333-5.333 5.333s-5.333-2.388-5.333-5.333v-3.255c0-6.145-4.999-11.144-11.144-11.144h-3.255c-2.947 0-5.333-2.388-5.333-5.333s2.385-5.333 5.333-5.333h3.255c12.025.001 21.81 9.783 21.81 21.81zm135.179-38.424c.724 2.854-1.005 5.754-3.859 6.478-39.672 10.048-75.982-22.477-72.641-60.759.245-2.934 2.755-5.145 5.765-4.861 2.937.253 5.109 2.833 4.859 5.767-2.617 31.554 27.225 57.655 59.392 49.516 2.854-.726 5.755 1 6.484 3.859zm32.078 18.599c-9.145-22.396-22.441-50.042-40.088-66.704-23.819-22.532-59.482-34.629-91.617-40.611-14.133-2.695-25.934-12.074-31.563-25.09-1.172-2.698-4.291-3.947-7.015-2.773-2.703 1.169-3.942 4.309-2.776 7.012 2.417 5.581 5.791 10.574 9.823 14.93-.987 13.887-12.479 24.919-26.613 24.919h-18.471v-33.381c0-2.945-2.385-5.333-5.333-5.333-2.947 0-5.333 2.388-5.333 5.333v31.879l-42.417-26.477c2.854-3.599 5.29-7.561 7.156-11.87 1.166-2.703-.073-5.843-2.776-7.012-2.718-1.174-5.843.076-7.015 2.773-5.629 13.016-17.43 22.395-31.532 25.085-27.611 5.111-65.923 16.308-91.648 40.622-13.925 13.199-27.413 35.602-40.093 66.605-9.646 23.795 7.729 49.837 33.308 49.837h360.698c25.535-.001 42.955-25.985 33.305-49.744zm-226.686-82.058-28.881 19.773-6.864-42.082zm7.702 121.136h-175.016c-18.284 0-30.134-18.595-23.429-35.151 12.097-29.576 24.731-50.735 37.541-62.879 23.835-22.52 60.064-33.029 86.29-37.885 7.382-1.409 14.203-4.358 20.215-8.425l8.64 52.978c.637 3.859 5.053 5.739 8.28 3.541l37.479-25.662zm185.682 0h-175.017v-116.731h18.471c17.205 0 31.702-11.672 36.082-27.505 5.98 4.013 12.756 6.925 20.087 8.323 29.945 5.583 64.006 16.829 86.264 37.883 16.336 15.425 29.077 42.266 37.536 62.975 6.771 16.66-5.306 35.055-23.423 35.055z" fill="url(#SVGID_1_)"/></g></svg>