<svg enable-background="new 0 0 512 512" height="512" viewBox="0 0 512 512" width="512" xmlns="http://www.w3.org/2000/svg" xmlns:xlink="http://www.w3.org/1999/xlink"><linearGradient id="SVGID_1_" gradientUnits="userSpaceOnUse" x1="14.741" x2="497.259" y1="497.259" y2="14.741"><stop offset="0" stop-color="#1d1d1d"/><stop offset="1" stop-color="#1d1d1d"/></linearGradient><g id="_x32_5_Eye_Scan"><path d="m494.351 259.265c1.495-1.922 1.495-4.609 0-6.53-4.343-5.609-107.901-137.347-238.263-137.347-130.45 0-234.091 131.736-238.44 137.345-1.495 1.924-1.495 4.611 0 6.536 4.348 5.609 107.99 137.345 238.44 137.345 130.362-.001 233.92-131.74 238.263-137.349zm-238.262 126.682c-114.046 0-210.35-109.471-227.358-129.95 16.992-20.476 113.223-129.945 227.358-129.945 113.963 0 210.189 109.471 227.181 129.947-16.993 20.477-113.219 129.948-227.181 129.948zm205.73-385.91h-64.1c-11.764 0-21.33 9.569-21.33 21.33s9.566 21.33 21.33 21.33h64.105c4.124 0 7.478 3.356 7.478 7.481v64.103c0 11.761 9.566 21.33 21.33 21.33s21.33-9.569 21.33-21.33v-64.1c.001-27.65-22.496-50.144-50.143-50.144zm39.479 114.244c0 5.882-4.786 10.665-10.665 10.665s-10.665-4.783-10.665-10.665v-64.103c0-10.006-8.139-18.146-18.143-18.146h-64.105c-5.879 0-10.665-4.783-10.665-10.665s4.786-10.665 10.665-10.665h64.1c21.768 0 39.479 17.711 39.479 39.479v64.1zm-387.017 355.022h-64.106c-4.124 0-7.478-3.356-7.478-7.481v-64.173c0-11.761-9.566-21.33-21.33-21.33s-21.33 9.569-21.33 21.33v64.17c0 27.65 22.497 50.144 50.144 50.144h64.1c11.764 0 21.33-9.569 21.33-21.33s-9.566-21.33-21.33-21.33zm0 31.995h-64.1c-21.768 0-39.479-17.711-39.479-39.479v-64.17c0-5.882 4.786-10.665 10.665-10.665s10.665 4.783 10.665 10.665v64.173c0 10.006 8.139 18.146 18.143 18.146h64.105c5.879 0 10.665 4.783 10.665 10.665s-4.785 10.665-10.664 10.665zm376.352-124.979c-11.764 0-21.33 9.569-21.33 21.33v64.17c0 4.127-3.359 7.483-7.483 7.483h-64.1c-11.764 0-21.33 9.569-21.33 21.33s9.566 21.33 21.33 21.33h64.105c27.647 0 50.139-22.494 50.139-50.141v-64.173c-.001-11.76-9.567-21.329-21.331-21.329zm10.665 85.503c0 21.768-17.706 39.476-39.473 39.476h-64.105c-5.879 0-10.665-4.783-10.665-10.665s4.786-10.665 10.665-10.665h64.1c10.009 0 18.148-8.142 18.148-18.148v-64.17c0-5.882 4.786-10.665 10.665-10.665s10.665 4.783 10.665 10.665zm-479.931-326.211c11.764 0 21.33-9.569 21.33-21.33v-64.1c0-4.127 3.359-7.483 7.483-7.483h64.1c11.764 0 21.33-9.569 21.33-21.33s-9.566-21.33-21.33-21.33h-64.105c-27.647 0-50.139 22.494-50.139 50.141v64.103c.001 11.76 9.567 21.329 21.331 21.329zm-10.665-85.433c0-21.768 17.706-39.476 39.473-39.476h64.105c5.879 0 10.665 4.783 10.665 10.665s-4.786 10.665-10.665 10.665h-64.1c-10.009 0-18.148 8.142-18.148 18.148v64.1c0 5.882-4.786 10.665-10.665 10.665s-10.665-4.783-10.665-10.665v-64.102zm246.704 110.617c-55.528 0-96.595 43.802-96.595 95.205 0 50.985 41.55 95.205 95.205 95.205 53.482 0 95.2-44.07 95.2-95.205-.001-53.629-44.45-95.205-93.81-95.205zm-44.436 68.987c2.859 0 5.187 2.328 5.187 5.187 0 2.906-2.281 5.184-5.187 5.184-2.859 0-5.187-2.325-5.187-5.184s2.328-5.187 5.187-5.187zm32.526 79.809c-2.859 0-5.187-2.325-5.187-5.184 0-2.908 2.281-5.187 5.187-5.187 2.859 0 5.187 2.328 5.187 5.182 0 2.861-2.328 5.189-5.187 5.189zm91.604-29.863h-28.989c-2.204-6.109-8.004-10.514-14.861-10.514-8.738 0-15.847 7.111-15.847 15.852 0 8.738 7.108 15.849 15.847 15.849 6.861 0 12.663-4.409 14.864-10.522h25.05c-13.655 30.509-45.127 52.148-82.309 49.885v-21.02c6.093-2.209 10.485-8.001 10.493-14.851 0-8.741-7.114-15.852-15.852-15.852s-15.852 7.111-15.852 15.852c0 6.868 4.421 12.674 10.545 14.868v19.726c-27.472-5.23-50.238-23.778-61.355-48.665h17.346c8.561 0 15.529-6.968 15.529-15.532 0-2.651 2.156-4.807 4.807-4.807h15.511c2.2 6.116 8.003 10.527 14.865 10.527 8.738 0 15.847-7.111 15.847-15.852 0-8.738-7.108-15.849-15.847-15.849-6.856 0-12.655 4.403-14.86 10.509h-15.516c-8.53 0-15.472 6.942-15.472 15.472 0 2.729-2.135 4.866-4.864 4.866h-21.269c-2.199-7.521-3.436-15.449-3.436-23.671 0-28.622 14.333-53.924 36.161-69.225v33.332c-6.111 2.202-10.519 8.002-10.519 14.863 0 8.738 7.114 15.849 15.852 15.849s15.852-7.111 15.852-15.849c0-6.861-4.408-12.661-10.519-14.863v-39.658c10.255-5.141 21.677-8.227 33.771-8.789v22.461c0 2.005 1.125 3.841 2.911 4.752l20.159 10.272v13.022c-5.651 2.16-9.691 7.599-9.691 14 0 8.285 6.739 15.026 15.024 15.026s15.024-6.741 15.024-15.026c0-6.401-4.041-11.84-9.691-14v-16.29c0-2.005-1.125-3.841-2.911-4.752l-20.159-10.272v-19.052c43.473 3.447 77.812 39.853 77.812 84.199-.001 8.244-1.241 16.192-3.451 23.729zm-38.663 5.338c0 2.859-2.328 5.184-5.187 5.184-2.906 0-5.182-2.278-5.182-5.184 0-2.859 2.323-5.187 5.182-5.187s5.187 2.328 5.187 5.187zm-56.732-20.393c0-2.859 2.328-5.184 5.187-5.184s5.182 2.325 5.182 5.184c0 2.908-2.276 5.187-5.182 5.187-2.859 0-5.187-2.328-5.187-5.187zm34.412-28.506c0-2.403 1.953-4.359 4.359-4.359s4.359 1.955 4.359 4.359c0 2.445-1.916 4.361-4.359 4.361-2.406 0-4.359-1.955-4.359-4.361z" fill="url(#SVGID_1_)"/></g></svg>