<svg enable-background="new 0 0 512 512" height="512" viewBox="0 0 512 512" width="512" xmlns="http://www.w3.org/2000/svg" xmlns:xlink="http://www.w3.org/1999/xlink"><linearGradient id="SVGID_1_" gradientUnits="userSpaceOnUse" x1="59.571" x2="452.429" y1="432.199" y2="39.341"><stop offset="0" stop-color="#1d1d1d"/><stop offset="1" stop-color="#1d1d1d"/></linearGradient><g id="_x32_0_Dna"><path d="m425.148 420.827v-82.279c0-2.945-2.385-5.333-5.333-5.333h-89.32c-2.948 0-5.333 2.388-5.333 5.333s2.385 5.333 5.333 5.333h83.988v76.981c-7.603 2.329-13.186 9.333-13.186 17.69 0 10.22 8.337 18.534 18.581 18.534 10.217 0 18.534-8.314 18.534-18.534-.001-8.398-5.623-15.431-13.264-17.725zm-5.271 25.594c-4.364 0-7.916-3.531-7.916-7.869 0-4.343 3.516-7.874 7.848-7.911.002 0 .003.001.005.001.005 0 .01-.003.015-.003.016 0 .031-.005.048-.005 4.338 0 7.869 3.552 7.869 7.918 0 4.338-3.531 7.869-7.869 7.869zm65.777-166.935c-7.784 0-14.317 5.145-16.577 12.187l-125.944-.05c-2.942 0-5.333 2.385-5.333 5.33s2.385 5.335 5.333 5.335l125.968.05c2.284 6.982 8.798 12.075 16.553 12.075 9.618 0 17.44-7.824 17.44-17.44.001-9.642-7.821-17.487-17.44-17.487zm0 24.262c-3.74 0-6.778-3.01-6.811-6.718 0-.007.004-.013.004-.02 0-.02-.011-.037-.011-.057.012-3.753 3.065-6.801 6.818-6.801 3.734 0 6.775 3.059 6.775 6.822.001 3.736-3.041 6.774-6.775 6.774zm7.749-101.441c-8.373 0-15.389 5.597-17.717 13.219h-32.995c-2.338 0-4.4 1.523-5.093 3.755l-10.41 33.625h-80.374c-2.947 0-5.333 2.388-5.333 5.333s2.385 5.333 5.333 5.333h84.306c2.338 0 4.4-1.523 5.093-3.755l10.41-33.625h29.032c2.296 7.654 9.339 13.285 17.748 13.285 10.233 0 18.56-8.327 18.56-18.56 0-10.262-8.327-18.61-18.56-18.61zm0 26.504c-4.38 0-7.942-3.541-7.942-7.895 0-4.38 3.562-7.944 7.942-7.944 4.354 0 7.895 3.565 7.895 7.944 0 4.354-3.541 7.895-7.895 7.895zm-38.447-137.613v56.604h-135.496c-2.947 0-5.333 2.388-5.333 5.333s2.385 5.333 5.333 5.333h140.829c2.948 0 5.333-2.388 5.333-5.333v-61.91c7.651-2.292 13.279-9.315 13.279-17.704 0-10.259-8.327-18.607-18.56-18.607-10.264 0-18.612 8.348-18.612 18.607 0 8.356 5.599 15.357 13.227 17.677zm5.384-25.619c4.354 0 7.895 3.562 7.895 7.942 0 4.354-3.541 7.897-7.895 7.897-.009 0-.018-.003-.027-.003s-.016-.005-.025-.005c-.003 0-.006.002-.008.002-4.351-.034-7.886-3.558-7.886-7.891 0-4.38 3.567-7.942 7.946-7.942zm-63.79 128.883h-56.828c-2.948 0-5.333 2.388-5.333 5.333s2.385 5.333 5.333 5.333h56.843c2.28 6.996 8.802 12.1 16.568 12.1 9.624 0 17.451-7.827 17.451-17.451 0-9.647-7.827-17.495-17.451-17.495-7.784-.001-14.318 5.141-16.583 12.18zm23.369 5.314c0 3.742-3.046 6.785-6.785 6.785s-6.775-3.007-6.817-6.712c0-.02.011-.035.011-.055 0-.026-.015-.048-.015-.074.032-3.738 3.076-6.774 6.821-6.774 3.739.001 6.785 3.065 6.785 6.83zm-245.772 97.176c0-2.945-2.39-5.33-5.333-5.33l-125.892.05c-2.26-7.042-8.793-12.187-16.577-12.187-9.618 0-17.44 7.845-17.44 17.487 0 9.616 7.822 17.44 17.44 17.44 7.755 0 14.269-5.093 16.553-12.075l125.916-.05c2.948.001 5.333-2.39 5.333-5.335zm-140.991.078c-.033 3.708-3.071 6.718-6.811 6.718-3.734 0-6.775-3.039-6.775-6.775 0-3.762 3.041-6.822 6.775-6.822 3.753 0 6.806 3.049 6.818 6.801 0 .02-.011.037-.011.057 0 .008.004.014.004.021zm82.294-102.568c-2.265-7.039-8.799-12.181-16.584-12.181-9.624 0-17.451 7.848-17.451 17.495 0 9.624 7.827 17.451 17.451 17.451 7.766 0 14.288-5.104 16.568-12.1h56.791c2.947 0 5.333-2.388 5.333-5.333s-2.385-5.333-5.333-5.333h-56.775zm-9.766 5.388c-.042 3.706-3.078 6.712-6.817 6.712s-6.785-3.044-6.785-6.785c0-3.765 3.046-6.83 6.785-6.83 3.746 0 6.79 3.036 6.821 6.774 0 .026-.015.048-.015.074 0 .019.01.035.011.055zm-8.166 221.012v-76.981h83.931c2.947 0 5.333-2.388 5.333-5.333s-2.385-5.333-5.333-5.333h-89.264c-2.947 0-5.333 2.388-5.333 5.333v82.279c-7.641 2.294-13.264 9.327-13.264 17.725 0 10.22 8.317 18.534 18.534 18.534 10.243 0 18.581-8.314 18.581-18.534 0-8.357-5.583-15.361-13.185-17.69zm-5.395 25.559c-4.338 0-7.869-3.531-7.869-7.869 0-4.367 3.531-7.918 7.869-7.918.016 0 .032.005.048.005.005 0 .009.003.015.003.002 0 .003-.001.005-.001 4.332.037 7.848 3.568 7.848 7.911-.001 4.338-3.553 7.869-7.916 7.869zm-55.779-220.229h29.032l10.41 33.625c.693 2.231 2.755 3.755 5.093 3.755h84.306c2.947 0 5.333-2.388 5.333-5.333s-2.385-5.333-5.333-5.333h-80.374l-10.41-33.625c-.693-2.231-2.755-3.755-5.093-3.755h-32.995c-2.328-7.623-9.344-13.219-17.717-13.219-10.233 0-18.56 8.348-18.56 18.609 0 10.233 8.327 18.56 18.56 18.56 8.41 0 15.453-5.631 17.748-13.284zm-25.642-5.275c0-4.38 3.541-7.944 7.895-7.944 4.38 0 7.942 3.565 7.942 7.944 0 4.354-3.562 7.895-7.942 7.895-4.354-.001-7.895-3.542-7.895-7.895zm35.677-129.692v61.91c0 2.945 2.385 5.333 5.333 5.333h140.777c2.947 0 5.333-2.388 5.333-5.333s-2.385-5.333-5.333-5.333h-135.445v-56.604c7.627-2.32 13.227-9.321 13.227-17.676 0-10.259-8.348-18.607-18.612-18.607-10.233 0-18.56 8.348-18.56 18.607.001 8.387 5.629 15.411 13.28 17.703zm5.281-25.646c4.38 0 7.947 3.562 7.947 7.942 0 4.333-3.535 7.857-7.886 7.891-.003 0-.006-.002-.008-.002-.009 0-.016.005-.025.005s-.018.003-.027.003c-4.354 0-7.895-3.544-7.895-7.897-.001-4.38 3.54-7.942 7.894-7.942zm225.812 311.691c30.856-15.659 53.408-64.102 53.408-121.306 0-57.177-22.557-105.597-53.419-121.242 30.862-15.653 53.419-64.1 53.419-121.312 0-2.945-2.385-5.333-5.333-5.333s-5.333 2.388-5.333 5.333c0 63.952-28.814 115.981-64.236 115.981-35.396 0-64.194-52.029-64.194-115.981 0-2.945-2.385-5.333-5.333-5.333-2.947 0-5.333 2.388-5.333 5.333 0 57.211 22.547 105.659 53.39 121.312-30.844 15.645-53.39 64.065-53.39 121.242 0 57.222 22.555 105.676 53.408 121.32-30.856 15.659-53.408 64.102-53.408 121.306 0 2.945 2.385 5.333 5.333 5.333 2.947 0 5.333-2.388 5.333-5.333 0-63.952 28.814-115.981 64.236-115.981 35.396 0 64.194 52.029 64.194 115.981 0 2.945 2.385 5.333 5.333 5.333 2.947 0 5.333-2.388 5.333-5.333 0-57.222-22.555-105.676-53.408-121.32zm-21.493-5.326c-35.396 0-64.194-52.029-64.194-115.981 0-63.913 28.798-115.908 64.194-115.908 35.422 0 64.236 51.995 64.236 115.908 0 63.952-28.814 115.981-64.236 115.981zm-40.864-185.119c0-2.945 2.385-5.333 5.333-5.333h71.104c2.947 0 5.333 2.388 5.333 5.333s-2.385 5.333-5.333 5.333h-71.104c-2.948 0-5.333-2.388-5.333-5.333zm-12.045 46.137c0-2.945 2.385-5.333 5.333-5.333h95.195c2.948 0 5.333 2.388 5.333 5.333s-2.385 5.333-5.333 5.333h-95.195c-2.948-.001-5.333-2.388-5.333-5.333zm2.26-181.933c0-2.945 2.385-5.333 5.333-5.333h90.674c2.948 0 5.333 2.388 5.333 5.333s-2.385 5.333-5.333 5.333h-90.674c-2.948 0-5.333-2.388-5.333-5.333zm78.291 40.742c2.947 0 5.333 2.388 5.333 5.333s-2.385 5.333-5.333 5.333h-55.299c-2.947 0-5.333-2.388-5.333-5.333s2.385-5.333 5.333-5.333zm-55.242 328.458c-2.947 0-5.333-2.388-5.333-5.333s2.385-5.333 5.333-5.333h55.299c2.947 0 5.333 2.388 5.333 5.333s-2.385 5.333-5.333 5.333zm78.291 40.742c0 2.945-2.385 5.333-5.333 5.333h-90.674c-2.947 0-5.333-2.388-5.333-5.333s2.385-5.333 5.333-5.333h90.674c2.948 0 5.333 2.388 5.333 5.333zm-3.13-176.6h-95.08c-2.947 0-5.333-2.388-5.333-5.333s2.385-5.333 5.333-5.333h95.08c2.948 0 5.333 2.388 5.333 5.333s-2.385 5.333-5.333 5.333zm-11.988 46.137h-71.104c-2.947 0-5.333-2.388-5.333-5.333s2.385-5.333 5.333-5.333h71.104c2.947 0 5.333 2.388 5.333 5.333s-2.385 5.333-5.333 5.333z" fill="url(#SVGID_1_)"/></g></svg>