<svg enable-background="new 0 0 512 512" height="512" viewBox="0 0 512 512" width="512" xmlns="http://www.w3.org/2000/svg" xmlns:xlink="http://www.w3.org/1999/xlink"><linearGradient id="SVGID_1_" gradientUnits="userSpaceOnUse" x1="81.044" x2="430.955" y1="430.956" y2="81.045"><stop offset="0" stop-color="#1d1d1d"/><stop offset="1" stop-color="#1d1d1d"/></linearGradient><g id="_x30_8_Brain"><path d="m470.625 256.042c0-29.064-22.361-52.998-50.769-55.484.349-2.031.526-4.088.526-6.161 0-18.922-14.357-34.552-32.756-36.568.635-2.293 1.307-6.358 1.307-9.702 0-.021-.011-.037-.012-.058-.013-20.251-16.494-36.724-36.749-36.724-.859 0-1.703.026-2.536.081 2.409-28.914-20.725-53.521-49.425-53.521-19.319 0-36.047 11.149-44.213 27.332-8.166-16.183-24.891-27.332-44.207-27.332-28.803 0-51.798 24.726-49.433 53.513-.833-.055-1.674-.083-2.523-.083-20.272 0-36.766 16.493-36.768 36.765 0 .009-.005.017-.005.027 0 3.27.644 7.249 1.328 9.704-18.396 2.005-32.758 17.633-32.758 36.552 0 2.057.18 4.132.529 6.176-28.42 2.471-50.792 26.418-50.792 55.495 0 29.146 22.645 52.897 50.792 55.331-.352 2.034-.529 4.114-.529 6.231 0 12.954 6.85 24.477 16.993 30.983 2.422 1.26 6.968 4.608 15.762 5.566-.872 3.14-1.32 6.397-1.32 9.676 0 16.56 10.982 30.713 26.293 35.28 1.893.385 5.863 1.93 12.993 1.462-.102 1.273-.154 2.565-.154 3.864 0 27.376 22.247 49.647 49.592 49.647 19.319 0 36.046-11.164 44.21-27.369 8.168 16.206 24.894 27.369 44.209 27.369 27.34 0 49.587-22.281 49.587-49.667 0-1.289-.052-2.575-.156-3.851 21.755 1.36 39.281-15.867 39.281-36.753 0-3.283-.443-6.53-1.307-9.65 18.624-2.037 32.766-17.924 32.766-36.57 0-2.078-.182-4.161-.536-6.2 27.962-2.432 50.78-26.026 50.78-55.361zm-219.958 148.405c0 21.494-17.44 38.981-38.875 38.981-21.463 0-38.927-17.487-38.927-38.981 0-2.215.256-4.35.629-6.436 4.506-1.795 8.729-4.504 12.371-8.146 2.083-2.08 2.083-5.458 0-7.541s-5.458-2.083-7.541 0c-6.693 6.688-16.806 9.5-26.709 6.217-5.112-1.715-7.418-3.704-9.376-5.507-5.194-4.784-8.508-11.584-8.508-19.194 0-3.539.775-7.027 2.19-10.247 6.954-1.442 13.348-4.862 18.484-10 2.083-2.083 2.083-5.46 0-7.541-2.083-2.083-5.458-2.083-7.541 0-16.607 16.607-44.569 4.562-44.569-18.437 0-2.218.37-4.334.907-6.393 12.415-1.365 24.037-6.841 33.062-15.864 2.083-2.08 2.083-5.458 0-7.541s-5.458-2.083-7.541 0c-9.469 9.464-22.759 14.4-36.842 12.798-22.393-2.554-39.85-21.552-39.85-44.562 0-22.952 17.248-41.914 39.443-44.662.068-.006.129.024.197.015 13.824-1.625 27.332 3.052 37.114 12.829 2.083 2.083 5.458 2.083 7.541 0s2.083-5.46 0-7.541c-9.055-9.057-20.695-14.573-33.133-15.937-.53-2.089-.899-4.227-.899-6.375 0-14.394 11.709-26.103 26.103-26.103.254 0 .507.044.761.054 6.591 9.945 17.881 16.527 30.693 16.527 2.945 0 5.333-2.388 5.333-5.333s-2.388-5.333-5.333-5.333c-14.644 0-26.121-12.163-26.121-26.093 0-14.394 11.709-26.103 26.103-26.103 1.638 0 3.204.19 4.73.469 2.319 7.354 6.353 14.28 12.171 20.098 2.083 2.083 5.458 2.083 7.541 0s2.083-5.458 0-7.541c-6.866-6.866-10.895-16.086-11.313-25.922-.924-22.343 16.896-40.534 38.828-40.534 21.434 0 38.875 17.464 38.875 38.927v296.929c0 .006.001.011.001.017.002.004.001.005.001.006zm125.066-109.088c9.027 9.025 20.648 14.499 33.062 15.864.544 2.068.923 4.202.923 6.38 0 11.063-7.252 20.464-16.157 24.126-9.319 3.869-20.853 1.898-28.431-5.676-2.083-2.083-5.458-2.083-7.541 0s-2.083 5.46 0 7.541c5.25 5.25 11.704 8.558 18.477 9.969 1.431 3.198 2.192 6.63 2.192 10.26 0 9.976-5.765 18.661-13.953 23.022-9.994 5.277-22.452 3.667-30.634-4.52-2.083-2.083-5.458-2.083-7.541 0s-2.083 5.46 0 7.541c3.643 3.641 7.866 6.35 12.371 8.144.375 2.106.633 4.242.633 6.417 0 21.505-17.461 39.002-38.921 39.002-21.44 0-38.88-17.497-38.88-39.002v-296.937c0-21.46 17.44-38.919 38.88-38.919 21.479 0 38.921 17.505 38.921 38.915 0 .011-.002.022-.002.034-.009 10.051-3.996 20.092-11.413 27.508-2.083 2.08-2.083 5.458 0 7.541s5.458 2.083 7.541 0c5.724-5.722 9.856-12.606 12.224-20.109 1.482-.267 3.027-.448 4.69-.448 14.383 0 26.085 11.701 26.085 26.082 0 13.863-11.406 26.103-26.111 26.103-2.948 0-5.333 2.388-5.333 5.333s2.385 5.333 5.333 5.333c12.812 0 24.103-6.584 30.692-16.532.251-.01.501-.056.752-.056 14.404 0 26.126 11.72 26.126 26.124 0 2.125-.375 4.265-.912 6.366-12.436 1.366-24.079 6.882-33.136 15.933-2.083 2.083-2.083 5.458 0 7.541s5.458 2.083 7.541 0c9.78-9.777 23.325-14.454 37.114-12.829.072.009.136-.022.207-.017 22.187 2.757 39.428 21.708 39.428 44.651 0 22.96-17.363 41.921-39.667 44.563-13.768 1.622-27.279-3.048-37.02-12.787-2.083-2.083-5.458-2.083-7.541 0-2.082 2.081-2.082 5.459.001 7.539zm-83.832-125.883c-4.014 4.684-9.897 7.72-16.534 7.72-2.947 0-5.333-2.388-5.333-5.333s2.385-5.333 5.333-5.333c6.176 0 11.202-5.025 11.202-11.202 0-12.056 9.811-21.864 21.867-21.864 2.947 0 5.333 2.388 5.333 5.333s-2.385 5.333-5.333 5.333c-6.176 0-11.202 5.023-11.202 11.199s5.025 11.202 11.202 11.202c2.947 0 5.333 2.388 5.333 5.333s-2.385 5.333-5.333 5.333c-6.638-.001-12.521-3.037-16.535-7.721zm85.389 105.787c0 2.945-2.385 5.333-5.333 5.333-6.637 0-12.521-3.036-16.535-7.721-4.014 4.683-9.897 7.718-16.533 7.718-2.948 0-5.333-2.388-5.333-5.333s2.385-5.333 5.333-5.333c6.176 0 11.202-5.023 11.202-11.199 0-12.058 9.811-21.867 21.867-21.867 2.948 0 5.333 2.388 5.333 5.333s-2.385 5.333-5.333 5.333c-6.176 0-11.202 5.025-11.202 11.202 0 6.176 5.025 11.202 11.202 11.202 2.947-.001 5.332 2.387 5.332 5.332zm-71.792-33.068c0 6.176 5.025 11.202 11.202 11.202 2.947 0 5.333 2.388 5.333 5.333s-2.385 5.333-5.333 5.333c-6.637 0-12.52-3.036-16.534-7.72-4.014 4.684-9.897 7.72-16.534 7.72-2.947 0-5.333-2.388-5.333-5.333s2.385-5.333 5.333-5.333c6.176 0 11.202-5.025 11.202-11.202 0-12.056 9.811-21.864 21.867-21.864 2.947 0 5.333 2.388 5.333 5.333s-2.385 5.333-5.333 5.333c-6.178-.001-11.203 5.021-11.203 11.198zm-65.28 24.736c0 2.945-2.388 5.333-5.333 5.333-6.638 0-12.521-3.035-16.534-7.718-4.013 4.683-9.896 7.718-16.534 7.718-2.945 0-5.333-2.388-5.333-5.333s2.388-5.333 5.333-5.333c6.176 0 11.202-5.023 11.202-11.199s-5.023-11.202-11.199-11.202c-2.945 0-5.333-2.388-5.333-5.333s2.388-5.333 5.333-5.333c12.056 0 21.864 9.808 21.864 21.867 0 6.176 5.025 11.199 11.202 11.199 2.945.001 5.332 2.389 5.332 5.334zm63.39 86.404c0 6.176 5.025 11.202 11.202 11.202 2.947 0 5.333 2.388 5.333 5.333s-2.385 5.333-5.333 5.333c-6.636 0-12.519-3.035-16.533-7.718-4.012 4.683-9.894 7.718-16.53 7.718-2.948 0-5.333-2.388-5.333-5.333s2.385-5.333 5.333-5.333c6.176 0 11.196-5.025 11.196-11.202 0-12.056 9.811-21.864 21.867-21.864 2.947 0 5.333 2.388 5.333 5.333s-2.385 5.333-5.333 5.333c-6.177-.001-11.202 5.022-11.202 11.198zm-61.642-181.471c0 2.945-2.388 5.333-5.333 5.333-6.636 0-12.518-3.035-16.531-7.719-4.013 4.683-9.896 7.719-16.534 7.719-2.945 0-5.333-2.388-5.333-5.333s2.388-5.333 5.333-5.333c6.176 0 11.202-5.025 11.202-11.202s-5.025-11.199-11.202-11.199c-2.945 0-5.333-2.388-5.333-5.333s2.388-5.333 5.333-5.333c12.058 0 21.867 9.808 21.867 21.864 0 6.176 5.023 11.202 11.199 11.202 2.944.001 5.332 2.389 5.332 5.334zm-63.525 103.396c0 2.945-2.388 5.333-5.333 5.333-6.636 0-12.518-3.035-16.531-7.717-4.013 4.684-9.897 7.72-16.535 7.72-2.945 0-5.333-2.388-5.333-5.333s2.388-5.333 5.333-5.333c6.176 0 11.202-5.025 11.202-11.202 0-6.176-5.025-11.202-11.202-11.202-2.945 0-5.333-2.388-5.333-5.333s2.388-5.333 5.333-5.333c12.058 0 21.867 9.808 21.867 21.867 0 6.176 5.023 11.199 11.199 11.199 2.945.002 5.333 2.389 5.333 5.334zm57.148 94.609c0 2.945-2.388 5.333-5.333 5.333-6.638 0-12.521-3.035-16.534-7.719-4.013 4.684-9.896 7.719-16.534 7.719-2.945 0-5.333-2.388-5.333-5.333s2.388-5.333 5.333-5.333c6.176 0 11.202-5.025 11.202-11.202 0-6.176-5.023-11.199-11.199-11.199-2.945 0-5.333-2.388-5.333-5.333s2.388-5.333 5.333-5.333c12.056 0 21.864 9.809 21.864 21.864 0 6.176 5.025 11.202 11.202 11.202 2.944.001 5.332 2.389 5.332 5.334zm15.078-345.612v-18.888c0-2.945 2.388-5.333 5.333-5.333s5.333 2.388 5.333 5.333v18.888c0 2.945-2.388 5.333-5.333 5.333s-5.333-2.388-5.333-5.333zm10.666 463.486v18.888c0 2.945-2.388 5.333-5.333 5.333s-5.333-2.388-5.333-5.333v-18.888c0-2.945 2.388-5.333 5.333-5.333s5.333 2.388 5.333 5.333zm-135.267-446.129c-1.471-2.552-.599-5.812 1.953-7.285 2.547-1.476 5.806-.596 7.285 1.953l9.444 16.357c1.471 2.552.599 5.812-1.953 7.285-2.528 1.46-5.8.615-7.285-1.953zm259.868 428.772c1.474 2.549.599 5.812-1.953 7.283-2.524 1.466-5.801.616-7.285-1.95l-9.447-16.357c-1.474-2.549-.599-5.812 1.953-7.283 2.536-1.482 5.806-.601 7.285 1.95zm-351.605-342.368c1.474-2.549 4.723-3.429 7.285-1.953l16.357 9.444c2.552 1.474 3.424 4.734 1.953 7.285-1.465 2.533-4.716 3.432-7.285 1.953l-16.357-9.444c-2.552-1.473-3.424-4.733-1.953-7.285zm443.342 255.964c-1.483 2.563-4.752 3.416-7.285 1.953l-16.357-9.444c-2.552-1.474-3.427-4.734-1.953-7.285 1.479-2.554 4.734-3.427 7.285-1.953l16.357 9.444c2.552 1.473 3.427 4.733 1.953 7.285zm-448.081-127.982c0 2.945-2.388 5.333-5.333 5.333h-18.888c-2.945 0-5.333-2.388-5.333-5.333s2.388-5.333 5.333-5.333h18.888c2.945 0 5.333 2.388 5.333 5.333zm482.373 0c0 2.945-2.385 5.333-5.333 5.333h-18.888c-2.948 0-5.333-2.388-5.333-5.333s2.385-5.333 5.333-5.333h18.888c2.948 0 5.333 2.388 5.333 5.333zm-452.039 113.205c1.471 2.552.599 5.812-1.953 7.285l-16.357 9.444c-2.528 1.46-5.8.615-7.285-1.953-1.471-2.552-.599-5.812 1.953-7.285l16.357-9.444c2.546-1.473 5.809-.599 7.285 1.953zm417.747-241.187c1.474 2.552.599 5.812-1.953 7.285l-16.357 9.444c-2.533 1.463-5.803.611-7.285-1.953-1.474-2.552-.599-5.812 1.953-7.285l16.357-9.444c2.541-1.471 5.806-.601 7.285 1.953zm-332.923 331.343-9.444 16.357c-1.465 2.533-4.716 3.432-7.285 1.953-2.552-1.474-3.424-4.734-1.953-7.285l9.444-16.357c1.474-2.547 4.721-3.427 7.285-1.953 2.552 1.474 3.424 4.734 1.953 7.285zm222.502-406.722 9.447-16.357c1.474-2.554 4.739-3.427 7.285-1.95 2.552 1.471 3.427 4.734 1.953 7.283l-9.447 16.357c-1.485 2.568-4.762 3.416-7.285 1.95-2.552-1.472-3.427-4.734-1.953-7.283z" fill="url(#SVGID_1_)"/></g></svg>